<svg id="Layer_1" data-name="Layer 1" xmlns="http://www.w3.org/2000/svg" viewBox="0 0 24 24"><path d="M6.5,16A1.5,1.5,0,1,1,5,17.5,1.5,1.5,0,0,1,6.5,16Zm3,7.861A7.939,7.939,0,0,0,15.565,18.6a7.8,7.8,0,0,0,.32-3.85l.681-.689A1.5,1.5,0,0,0,17,13V11h.5A2.5,2.5,0,0,0,20,8.5V8h1.251a2.512,2.512,0,0,0,2.307-1.52,5.323,5.323,0,0,0,.416-2.635A4.317,4.317,0,0,0,19.629,0a5.467,5.467,0,0,0-3.891,1.612l-6.5,6.5a7.776,7.776,0,0,0-3.84.326A8,8,0,0,0,8.025,24,8.131,8.131,0,0,0,9.5,23.861ZM9.315,11.2a1.5,1.5,0,0,0,1.463-.385l7.081-7.08A2.487,2.487,0,0,1,19.629,3a1.342,1.342,0,0,1,1.36,1.149,2.2,2.2,0,0,1-.08.851H19.5A2.5,2.5,0,0,0,17,7.5V8h-.5A2.5,2.5,0,0,0,14,10.5v1.884l-.822.831a1.5,1.5,0,0,0-.378,1.459,4.923,4.923,0,0,1-.074,2.955,5,5,0,1,1-6.36-6.352,4.9,4.9,0,0,1,1.592-.268A5.053,5.053,0,0,1,9.315,11.2Z"/></svg>