<svg id="Layer_1" data-name="Layer 1" xmlns="http://www.w3.org/2000/svg" viewBox="0 0 24 24"><path d="M12,0A12,12,0,1,0,24,12,12.013,12.013,0,0,0,12,0Zm1.5,20.865V19.5a1.5,1.5,0,0,0-3,0v1.365A9.014,9.014,0,0,1,3.135,13.5H4.5a1.5,1.5,0,0,0,0-3H3.135A9.014,9.014,0,0,1,10.5,3.135V4.5a1.5,1.5,0,0,0,3,0V3.135A9.01,9.01,0,0,1,20.865,10.5H19.5a1.5,1.5,0,0,0,0,3h1.365A9.01,9.01,0,0,1,13.5,20.865ZM16,12a1.5,1.5,0,0,1-1.5,1.5h-1v1a1.5,1.5,0,0,1-3,0v-1h-1a1.5,1.5,0,0,1,0-3h1v-1a1.5,1.5,0,0,1,3,0v1h1A1.5,1.5,0,0,1,16,12Z"/></svg>