<svg id="Layer_1" data-name="Layer 1" xmlns="http://www.w3.org/2000/svg" viewBox="0 0 24 24"><path d="M18,13.5V7.571a6.457,6.457,0,0,0-1.9-4.6L15.025,1.9a6.457,6.457,0,0,0-4.6-1.9H7.5A5.506,5.506,0,0,0,2,5.5v8A5.506,5.506,0,0,0,7.5,19h5A5.506,5.506,0,0,0,18,13.5Zm-13,0v-8A2.5,2.5,0,0,1,7.5,3h2.929A3.5,3.5,0,0,1,11,3.056V5a2,2,0,0,0,2,2h1.944A3.5,3.5,0,0,1,15,7.571V13.5A2.5,2.5,0,0,1,12.5,16h-5A2.5,2.5,0,0,1,5,13.5Zm18-5v10A5.506,5.506,0,0,1,17.5,24h-8a1.5,1.5,0,0,1,0-3h8A2.5,2.5,0,0,0,20,18.5V8.5a1.5,1.5,0,0,1,3,0Z"/></svg>