<svg id="Layer_1" data-name="Layer 1" xmlns="http://www.w3.org/2000/svg" viewBox="0 0 24 24"><path d="M5,11.5A1.5,1.5,0,0,1,6.5,10h11a1.5,1.5,0,0,1,0,3H6.5A1.5,1.5,0,0,1,5,11.5ZM6.5,18h7a1.5,1.5,0,0,0,0-3h-7a1.5,1.5,0,0,0,0,3ZM24,6.5v11A5.506,5.506,0,0,1,18.5,23H5.5A5.506,5.506,0,0,1,0,17.5V6.5A5.506,5.506,0,0,1,5.5,1h13A5.506,5.506,0,0,1,24,6.5ZM8,4.5A1.5,1.5,0,1,0,9.5,3,1.5,1.5,0,0,0,8,4.5Zm-5,0A1.5,1.5,0,1,0,4.5,3,1.5,1.5,0,0,0,3,4.5ZM21,8H3v9.5A2.5,2.5,0,0,0,5.5,20h13A2.5,2.5,0,0,0,21,17.5Z"/></svg>