<svg id="Bold" xmlns="http://www.w3.org/2000/svg" viewBox="0 0 24 24"><title>50 bin</title><path d="M23,4.5A1.5,1.5,0,0,0,21.5,3H17.724A4.494,4.494,0,0,0,13.5,0h-3A4.494,4.494,0,0,0,6.276,3H2.5A1.5,1.5,0,0,0,1,4.5H1A1.5,1.5,0,0,0,2.5,6H3V18.5A5.5,5.5,0,0,0,8.5,24h7A5.5,5.5,0,0,0,21,18.5V6h.5A1.5,1.5,0,0,0,23,4.5Zm-5,14A2.5,2.5,0,0,1,15.5,21h-7A2.5,2.5,0,0,1,6,18.5V6H18Z"/><path d="M9.5,18A1.5,1.5,0,0,0,11,16.5v-6a1.5,1.5,0,0,0-3,0v6A1.5,1.5,0,0,0,9.5,18Z"/><path d="M14.5,18A1.5,1.5,0,0,0,16,16.5v-6a1.5,1.5,0,0,0-3,0v6A1.5,1.5,0,0,0,14.5,18Z"/></svg>