<svg id="Layer_1" data-name="Layer 1" xmlns="http://www.w3.org/2000/svg" viewBox="0 0 24 24"><path d="M13.5,8.5a1.5,1.5,0,0,0-3,0v3.19a2,2,0,1,0,3,0Z"/><path d="M22.5,5.5a1.5,1.5,0,0,0,0-3c-.841,0-1-.159-1-1a1.5,1.5,0,0,0-3,0,4.861,4.861,0,0,0,.289,1.715l-.618.685A10.927,10.927,0,0,0,13.5,2.115V1.5a1.5,1.5,0,0,0-3,0v.615A10.927,10.927,0,0,0,5.829,3.9l-.618-.685A4.861,4.861,0,0,0,5.5,1.5a1.5,1.5,0,0,0-3,0c0,.841-.159,1-1,1a1.5,1.5,0,0,0,0,3,4.953,4.953,0,0,0,1.523-.232l.579.643a11,11,0,1,0,16.8,0l.579-.643A4.953,4.953,0,0,0,22.5,5.5ZM12,21a8,8,0,1,1,8-8A8.009,8.009,0,0,1,12,21Z"/></svg>