<svg id="Layer_1" data-name="Layer 1" xmlns="http://www.w3.org/2000/svg" viewBox="0 0 24 24"><path d="M19.64.005c-3.783,0-8.046,2.006-11.4,5.365A37.3,37.3,0,0,0,.348,16.857a4.349,4.349,0,0,0,.927,4.811l1.057,1.057a4.345,4.345,0,0,0,4.806.928A37.171,37.171,0,0,0,18.63,15.766C21.989,12.406,24,8.143,24,4.36A4,4,0,0,0,19.64.005Zm-3.131,13.64A34.193,34.193,0,0,1,5.957,20.9a1.345,1.345,0,0,1-.81.078L16.561,9.561a1.5,1.5,0,0,0-2.122-2.122L3.027,18.852a1.363,1.363,0,0,1,.078-.811,34.249,34.249,0,0,1,7.251-10.55c3.308-3.307,6.964-4.486,9.284-4.486C20.717,3.005,21,3.283,21,4.36,21,6.68,19.816,10.337,16.509,13.645Z"/></svg>