<svg id="Bold" xmlns="http://www.w3.org/2000/svg" viewBox="0 0 24 24"><title>35 full screen</title><path d="M22.5,15.5A1.5,1.5,0,0,0,21,17v1.5A2.5,2.5,0,0,1,18.5,21H17a1.5,1.5,0,0,0,0,3h1.5A5.506,5.506,0,0,0,24,18.5V17A1.5,1.5,0,0,0,22.5,15.5Z"/><path d="M7,0H5.5A5.506,5.506,0,0,0,0,5.5V7A1.5,1.5,0,0,0,3,7V5.5A2.5,2.5,0,0,1,5.5,3H7A1.5,1.5,0,0,0,7,0Z"/><path d="M7,21H5.5A2.5,2.5,0,0,1,3,18.5V17a1.5,1.5,0,0,0-3,0v1.5A5.506,5.506,0,0,0,5.5,24H7a1.5,1.5,0,0,0,0-3Z"/><path d="M18.5,0H17a1.5,1.5,0,0,0,0,3h1.5A2.5,2.5,0,0,1,21,5.5V7a1.5,1.5,0,0,0,3,0V5.5A5.506,5.506,0,0,0,18.5,0Z"/></svg>