<svg id="Layer_1" data-name="Layer 1" xmlns="http://www.w3.org/2000/svg" viewBox="0 0 24 24"><path d="M24,21a3,3,0,0,1-6,.014l-2.5-1.43A2.97,2.97,0,0,1,14,20a3,3,0,0,1,0-6,2.97,2.97,0,0,1,1.5.416l2.5-1.43A3,3,0,1,1,21,16a2.97,2.97,0,0,1-1.5-.416L17.023,17,19.5,18.416A2.97,2.97,0,0,1,21,18,3,3,0,0,1,24,21ZM9.308,3.057a5.2,5.2,0,0,1,3.909.989,5.109,5.109,0,0,1,2,3.418,1.5,1.5,0,0,0,1.29,1.288,5.191,5.191,0,0,1,1,.237,1.5,1.5,0,0,0,.976-2.837q-.254-.087-.515-.158A8.176,8.176,0,0,0,8.882.087a8.053,8.053,0,0,0-6.736,6.5,8.111,8.111,0,0,0,.541,4.825,5.763,5.763,0,0,0-2.5,6.3A5.884,5.884,0,0,0,5.968,22H8.5a1.5,1.5,0,0,0,0-3H5.968a2.926,2.926,0,0,1-2.875-2.038,2.765,2.765,0,0,1,1.444-3.157A2.482,2.482,0,0,0,5.549,10.45a5.117,5.117,0,0,1-.456-3.3A5.052,5.052,0,0,1,9.308,3.057Z"/></svg>