<svg id="Layer_1" data-name="Layer 1" xmlns="http://www.w3.org/2000/svg" viewBox="0 0 24 24"><path d="M.221,4.283a1.5,1.5,0,0,1,.5-2.062l3.268-2A1.5,1.5,0,1,1,5.552,2.779l-3.269,2a1.5,1.5,0,0,1-2.062-.5Zm23.067,13.7a1.5,1.5,0,0,0-2.064.489l-2,3.241a1.5,1.5,0,1,0,2.552,1.576l2-3.241A1.5,1.5,0,0,0,23.288,17.982Zm-2.453-2.5-3.6,5.865a5.527,5.527,0,0,1-4.086,2.611,5.91,5.91,0,0,1-.663.039A5.5,5.5,0,0,1,9.1,22.815a4.183,4.183,0,0,1-5.956-5.872l-1.494-1.5a5.54,5.54,0,0,1-1.6-4.589A5.483,5.483,0,0,1,2.637,6.8L8.124,3.413A8.982,8.982,0,0,1,18.2,3.68l1.24-1.241a1.5,1.5,0,0,1,2.122,2.122L20.323,5.8A9.054,9.054,0,0,1,20.835,15.486Zm-3.6-8.707a6.019,6.019,0,0,0-7.519-.823l-5.5,3.4a2.507,2.507,0,0,0-1.18,1.853,2.559,2.559,0,0,0,.742,2.12l6.912,6.928a2.563,2.563,0,0,0,3.991-.473l3.573-5.818A6.025,6.025,0,0,0,17.236,6.779Z"/></svg>