<svg id="Layer_1" data-name="Layer 1" xmlns="http://www.w3.org/2000/svg" viewBox="0 0 24 24"><path d="M12,15a3.244,3.244,0,0,0,1.453-.341l1.75-.875A3.231,3.231,0,0,0,17,10.875V9.125a3.231,3.231,0,0,0-1.8-2.907l-1.75-.875a3.264,3.264,0,0,0-2.906,0L8.8,6.218A3.231,3.231,0,0,0,7,9.125v1.75a3.231,3.231,0,0,0,1.8,2.907l1.75.875A3.244,3.244,0,0,0,12,15Zm-2-4.123v-1.7l1.327.663a1.5,1.5,0,0,0,1.346,0L14,9.178v1.7a.248.248,0,0,1-.139.224l-1.75.875a.248.248,0,0,1-.222,0l-1.75-.875A.248.248,0,0,1,10,10.875ZM18.5,21H14.76a5.127,5.127,0,0,0,.9-.693l3.412-3.169a10.083,10.083,0,0,0,0-14.2,9.973,9.973,0,0,0-14.148,0A10.094,10.094,0,0,0,4.969,17.18l3.338,3.1A5.194,5.194,0,0,0,9.25,21H5.5a1.5,1.5,0,0,0,0,3h13a1.5,1.5,0,0,0,0-3ZM7.053,15.022a7.074,7.074,0,0,1,0-9.961,6.968,6.968,0,0,1,9.894,0,7.063,7.063,0,0,1,.043,9.919l-3.4,3.157a2.3,2.3,0,0,1-3.211-.03Z"/></svg>