<svg id="Layer_1" data-name="Layer 1" xmlns="http://www.w3.org/2000/svg" viewBox="0 0 24 24"><path d="M15.5,6a1.5,1.5,0,0,1,0,3h-7a1.5,1.5,0,0,1,0-3Zm8.061,17.561a1.5,1.5,0,0,1-2.122,0l-2.011-2.012A4.444,4.444,0,0,1,17.5,22,4.5,4.5,0,1,1,22,17.5a4.444,4.444,0,0,1-.451,1.928l2.012,2.011A1.5,1.5,0,0,1,23.561,23.561ZM17.5,19A1.5,1.5,0,1,0,16,17.5,1.5,1.5,0,0,0,17.5,19Zm-6,2h-4A2.5,2.5,0,0,1,5,18.5V5.5A2.5,2.5,0,0,1,7.5,3h11a.5.5,0,0,1,.5.5v7a1.5,1.5,0,0,0,3,0v-7A3.5,3.5,0,0,0,18.5,0H7.5A5.506,5.506,0,0,0,2,5.5v13A5.506,5.506,0,0,0,7.5,24h4a1.5,1.5,0,0,0,0-3Z"/></svg>