<svg id="Layer_1" data-name="Layer 1" xmlns="http://www.w3.org/2000/svg" viewBox="0 0 24 24"><path d="M12,5a1.5,1.5,0,0,1-1.5-1.5v-2a1.5,1.5,0,0,1,3,0v2A1.5,1.5,0,0,1,12,5Zm1.5,17.5v-2a1.5,1.5,0,0,0-3,0v2a1.5,1.5,0,0,0,3,0ZM5,12a1.5,1.5,0,0,0-1.5-1.5h-2a1.5,1.5,0,0,0,0,3h2A1.5,1.5,0,0,0,5,12Zm19,0a1.5,1.5,0,0,0-1.5-1.5h-2a1.5,1.5,0,0,0,0,3h2A1.5,1.5,0,0,0,24,12ZM17.476,5.329l.981-1.743a1.5,1.5,0,0,0-2.613-1.473l-.982,1.743A1.5,1.5,0,0,0,15.433,5.9a1.484,1.484,0,0,0,.735.194A1.5,1.5,0,0,0,17.476,5.329ZM8.156,21.887l.982-1.743a1.5,1.5,0,0,0-2.614-1.473l-.981,1.743a1.5,1.5,0,0,0,2.613,1.473ZM5.9,8.567a1.5,1.5,0,0,0-.57-2.043L3.586,5.543A1.5,1.5,0,0,0,2.113,8.156l1.743.982A1.5,1.5,0,0,0,5.9,8.567Zm16.558,9.32a1.5,1.5,0,0,0-.57-2.043l-1.743-.982a1.5,1.5,0,0,0-1.473,2.614l1.743.981a1.5,1.5,0,0,0,2.043-.57ZM8.567,5.9a1.5,1.5,0,0,0,.571-2.043L8.156,2.113A1.5,1.5,0,0,0,5.543,3.586l.981,1.743a1.5,1.5,0,0,0,1.308.764A1.484,1.484,0,0,0,8.567,5.9Zm9.32,16.558a1.5,1.5,0,0,0,.57-2.043l-.981-1.743a1.5,1.5,0,0,0-2.614,1.473l.982,1.743a1.5,1.5,0,0,0,2.043.57ZM20.144,9.138l1.743-.982a1.5,1.5,0,0,0-1.473-2.613l-1.743.981a1.5,1.5,0,0,0,1.473,2.614ZM3.586,18.457l1.743-.981a1.5,1.5,0,0,0-1.473-2.614l-1.743.982a1.5,1.5,0,0,0,.738,2.806A1.483,1.483,0,0,0,3.586,18.457Z"/></svg>