<svg id="Layer_1" data-name="Layer 1" xmlns="http://www.w3.org/2000/svg" viewBox="0 0 24 24"><path d="M7,11.5A1.5,1.5,0,0,1,8.5,10h3a1.5,1.5,0,0,1,0,3h-3A1.5,1.5,0,0,1,7,11.5ZM8.5,8h7a1.5,1.5,0,0,0,0-3h-7a1.5,1.5,0,0,0,0,3ZM21,19.974v2.942a1.082,1.082,0,0,1-1.847.765L18,22.528l-1.153,1.153A1.082,1.082,0,0,1,15,22.916V19.974A4.989,4.989,0,0,1,19,11.1V5.5A2.5,2.5,0,0,0,16.5,3l-8.993.038A2.5,2.5,0,0,0,5,5.538V17.5A2.5,2.5,0,0,0,7.5,20h4a1.5,1.5,0,0,1,0,3h-4A5.507,5.507,0,0,1,2,17.5V5.538A5.507,5.507,0,0,1,7.5.038L16.493,0A5.509,5.509,0,0,1,22,5.5v7.531a4.932,4.932,0,0,1-1,6.943ZM16,16a2,2,0,1,0,2-2A2,2,0,0,0,16,16Z"/></svg>