<svg id="Layer_1" data-name="Layer 1" xmlns="http://www.w3.org/2000/svg" viewBox="0 0 24 24"><path d="M19.227,0H17.31a4.739,4.739,0,0,0-3.374,1.4L10.4,4.935A4.809,4.809,0,0,0,9,8.311v3.671c-2.635,1.953-5.642,4.206-6.077,4.641a3.063,3.063,0,0,0-.781,3.114l-1.7,1.7a1.5,1.5,0,0,0,2.122,2.122l1.7-1.7a3.063,3.063,0,0,0,3.113-.78c.435-.435,2.689-3.442,4.642-6.078H15.69a4.739,4.739,0,0,0,3.374-1.4L22.6,10.065A4.809,4.809,0,0,0,24,6.689V4.772A4.778,4.778,0,0,0,19.227,0ZM21,6.689a1.785,1.785,0,0,1-.519,1.254L16.943,11.48A1.761,1.761,0,0,1,15.69,12H14.232l.309-.42,4.02-4.019a1.5,1.5,0,0,0-2.122-2.122L12.418,9.461,12,9.768V8.311a1.785,1.785,0,0,1,.519-1.254L16.057,3.52A1.761,1.761,0,0,1,17.31,3h1.917A1.774,1.774,0,0,1,21,4.772Z"/></svg>