<svg id="Layer_1" data-name="Layer 1" xmlns="http://www.w3.org/2000/svg" viewBox="0 0 24 24"><path d="M10,12a1.983,1.983,0,0,1,.5-1.31V7a1.5,1.5,0,0,1,3,0v3.69a1.966,1.966,0,0,1,0,2.62V15.5a1.5,1.5,0,0,1-3,0V13.31A1.985,1.985,0,0,1,10,12ZM12,0a1.5,1.5,0,0,0,0,3,9,9,0,0,1,0,18,1.5,1.5,0,0,0,0,3A12,12,0,0,0,12,0ZM3,12a1.5,1.5,0,1,0-1.5,1.5A1.5,1.5,0,0,0,3,12ZM6.74,1.394a1.5,1.5,0,1,0,1.5,1.5A1.5,1.5,0,0,0,6.74,1.394ZM2.913,5.25a1.5,1.5,0,1,0,1.5,1.5A1.5,1.5,0,0,0,2.913,5.25ZM6.74,19.606a1.5,1.5,0,1,0,1.5,1.5A1.5,1.5,0,0,0,6.74,19.606ZM2.913,15.75a1.5,1.5,0,1,0,1.5,1.5A1.5,1.5,0,0,0,2.913,15.75Z"/></svg>