<svg id="Layer_1" data-name="Layer 1" xmlns="http://www.w3.org/2000/svg" viewBox="0 0 24 24"><path d="M16.5,0A1.5,1.5,0,0,0,15,1.5C15,2.817,14.656,4,10.5,4h-6A4.505,4.505,0,0,0,0,8.5v3a4.484,4.484,0,0,0,2.377,3.943l3.178,7.093A2.467,2.467,0,0,0,7.808,24a2.19,2.19,0,0,0,2-3.079L7.551,16H10.5c4.156,0,4.5,1.183,4.5,2.5a1.5,1.5,0,0,0,3,0V1.5A1.5,1.5,0,0,0,16.5,0ZM15,13.711A11.623,11.623,0,0,0,10.5,13h-6A1.5,1.5,0,0,1,3,11.5v-3A1.5,1.5,0,0,1,4.5,7h6A11.623,11.623,0,0,0,15,6.289Zm8.842,1.96a1.5,1.5,0,0,1-2.013.671l-1-.5a1.5,1.5,0,0,1,1.342-2.684l1,.5A1.5,1.5,0,0,1,23.842,15.671Zm-3.684-9.5a1.5,1.5,0,0,1,.671-2.013l1-.5a1.5,1.5,0,0,1,1.342,2.684l-1,.5a1.5,1.5,0,0,1-2.013-.671ZM20,10a1.5,1.5,0,0,1,1.5-1.5h1a1.5,1.5,0,0,1,0,3h-1A1.5,1.5,0,0,1,20,10Z"/></svg>