<svg id="Bold" xmlns="http://www.w3.org/2000/svg" viewBox="0 0 24 24"><title>133 interactive</title><path d="M3,10A7,7,0,0,1,16.911,8.938L20,10.06c0-.02,0-.04,0-.06A10,10,0,1,0,10,20c.021,0,.04,0,.061,0L8.939,16.911A7,7,0,0,1,3,10Z"/><path d="M13.567,8.075c.171,0,.34.029.51.045a4.493,4.493,0,1,0-5.971,5.949,5.5,5.5,0,0,1,5.461-5.994Z"/><path d="M23.558,21.437l-2.645-2.645,1.666-1.666a2.641,2.641,0,0,0-.965-4.35L14.776,10.29a3.5,3.5,0,0,0-4.485,4.486l2.486,6.838a2.629,2.629,0,0,0,1.91,1.676,2.7,2.7,0,0,0,.578.064,2.627,2.627,0,0,0,1.861-.775l1.666-1.666,2.645,2.645a1.5,1.5,0,1,0,2.121-2.121ZM15.4,20.06,13.11,13.751a.477.477,0,0,1,.117-.524.469.469,0,0,1,.524-.117L20.06,15.4Z"/></svg>