<?xml version="1.0" encoding="utf-8"?>
<!-- Generator: Adobe Illustrator 25.0.1, SVG Export Plug-In . SVG Version: 6.00 Build 0)  -->
<svg version="1.1" id="Bold" xmlns="http://www.w3.org/2000/svg" xmlns:xlink="http://www.w3.org/1999/xlink" x="0px" y="0px"
	 viewBox="0 0 24 24" style="enable-background:new 0 0 24 24;" xml:space="preserve">
<circle cx="6.5" cy="14.5" r="1.5"/>
<path d="M18.5,3h-13C2.5,3,0,5.5,0,8.5v7c0,3,2.5,5.5,5.5,5.5h13c3,0,5.5-2.5,5.5-5.5v-7C24,5.5,21.5,3,18.5,3z M5.5,6h13
	c1.2,0,2.2,0.8,2.4,2H3.1C3.3,6.8,4.3,6,5.5,6z M18.5,18h-13C4.1,18,3,16.9,3,15.5V11h18v4.5C21,16.9,19.9,18,18.5,18z"/>
</svg>
