<svg id="Layer_1" data-name="Layer 1" xmlns="http://www.w3.org/2000/svg" viewBox="0 0 24 24"><path d="M8.474,0a5.5,5.5,0,1,0,5.5,5.5A5.506,5.506,0,0,0,8.474,0Zm0,8a2.5,2.5,0,1,1,2.5-2.5A2.5,2.5,0,0,1,8.474,8Z"/><path d="M8.972,14.351A1.5,1.5,0,0,1,7.787,16.11,5.935,5.935,0,0,0,3,21.929V22.5a1.5,1.5,0,0,1-3,0v-.571a8.941,8.941,0,0,1,7.213-8.764A1.5,1.5,0,0,1,8.972,14.351Z"/><path d="M17,10a7,7,0,1,0,7,7A7,7,0,0,0,17,10Zm3.244,10.245a1.5,1.5,0,0,1-2.365.316l-2.44-2.44A1.5,1.5,0,0,1,15,17.06v-3.5a1.5,1.5,0,0,1,3,0v2.878l1.938,1.938A1.56,1.56,0,0,1,20.244,20.245Z"/></svg>