<svg id="Layer_1" data-name="Layer 1" xmlns="http://www.w3.org/2000/svg" viewBox="0 0 24 24"><path d="M22.5,13.5H1.5a1.5,1.5,0,0,1,0-3h21a1.5,1.5,0,0,1,0,3ZM18.867,6.9a2.717,2.717,0,0,0-1.423-3.059q-.061-.031-.126-.057L8.863.4A3.475,3.475,0,0,0,5.52.458,3.078,3.078,0,0,0,4,3.14V5.785A3.218,3.218,0,0,0,7.215,9H16A2.8,2.8,0,0,0,18.867,6.9ZM14.779,6H7.215A.215.215,0,0,1,7,5.785V3.14c0-.072.009-.077.042-.1A.385.385,0,0,1,7.235,3C7.317,3,14.779,6,14.779,6ZM8.863,23.6l8.455-3.389q.064-.026.126-.057a2.718,2.718,0,0,0,1.423-3.06A2.8,2.8,0,0,0,16,15H7.215A3.218,3.218,0,0,0,4,18.214v2.645A3.076,3.076,0,0,0,5.52,23.54,3.377,3.377,0,0,0,7.233,24,3.553,3.553,0,0,0,8.863,23.6ZM14.779,18S7.557,20.9,7.5,20.93a.49.49,0,0,1-.46.025c-.033-.02-.042-.025-.042-.1V18.214A.215.215,0,0,1,7.215,18Z"/></svg>