<svg id="Layer_1" data-name="Layer 1" xmlns="http://www.w3.org/2000/svg" viewBox="0 0 24 24"><path d="M23.7,9.886A12.63,12.63,0,0,0,13.5,2.1V1.5a1.5,1.5,0,0,0-3,0v.607A12.831,12.831,0,0,0,.3,9.886,4.56,4.56,0,0,0,.808,14.1,4.348,4.348,0,0,0,4.377,16H10.5v4.25a.75.75,0,0,1-1.495.086,1.5,1.5,0,0,0-2.983.328A3.75,3.75,0,0,0,13.5,20.25V16h6.123a4.348,4.348,0,0,0,3.569-1.9A4.56,4.56,0,0,0,23.7,9.886ZM20.722,12.4a1.335,1.335,0,0,1-1.1.6H4.377a1.335,1.335,0,0,1-1.1-.6A1.54,1.54,0,0,1,3.1,10.954,9.749,9.749,0,0,1,12.008,5,9.736,9.736,0,0,1,20.9,10.954,1.54,1.54,0,0,1,20.722,12.4Z"/></svg>