<svg id="Layer_1" data-name="Layer 1" xmlns="http://www.w3.org/2000/svg" viewBox="0 0 24 24"><path d="M20,8v2h2.5a1.5,1.5,0,0,1,0,3H20v2h2.5a1.5,1.5,0,0,1,0,3H20v4.5a1.5,1.5,0,0,1-3,0V4.5A4.505,4.505,0,0,1,21.5,0h1a1.5,1.5,0,0,1,0,3h-1A1.5,1.5,0,0,0,20,4.5V5h2.5a1.5,1.5,0,0,1,0,3ZM16,19.25A4.736,4.736,0,0,1,8,22.7a4.739,4.739,0,1,1-5.8-7.442c1.154-1.4,2.712-3.5,4.013-5.474C4.49,6.946,3,3.829,3,1.5a1.5,1.5,0,0,1,3,0c0,1.308.827,3.268,2,5.365,1.173-2.1,2-4.058,2-5.365a1.5,1.5,0,0,1,3,0c0,2.329-1.491,5.447-3.217,8.281,1.3,1.975,2.858,4.077,4.013,5.473A4.739,4.739,0,0,1,16,19.25Zm-9.5,0A1.75,1.75,0,1,0,4.75,21,1.752,1.752,0,0,0,6.5,19.25ZM8,15.8A4.753,4.753,0,0,1,9.649,14.8c-.5-.658-1.063-1.438-1.649-2.284-.586.846-1.152,1.626-1.649,2.284A4.753,4.753,0,0,1,8,15.8Zm5,3.446A1.75,1.75,0,1,0,11.25,21,1.752,1.752,0,0,0,13,19.25Z"/></svg>