<svg id="Layer_1" data-name="Layer 1" xmlns="http://www.w3.org/2000/svg" viewBox="0 0 24 24"><path d="M22.727,1.273A4.31,4.31,0,0,0,18.615.129,30.23,30.23,0,0,0,5.3,7.616a7.862,7.862,0,0,0-.969,9.933L.439,21.439a1.5,1.5,0,0,0,2.122,2.122l3.893-3.894A7.631,7.631,0,0,0,10.742,21a8.312,8.312,0,0,0,5.989-2.58A30.589,30.589,0,0,0,23.874,5.35,4.276,4.276,0,0,0,22.727,1.273ZM19.339,3.041a1.321,1.321,0,0,1,1.269.355,1.291,1.291,0,0,1,.352,1.237A26.828,26.828,0,0,1,18.923,10h-2.8l1.44-1.439a1.5,1.5,0,0,0-2.122-2.122L11,10.879V6.844A28.164,28.164,0,0,1,19.339,3.041ZM6.006,13.418A4.895,4.895,0,0,1,7.423,9.735c.184-.185.386-.35.577-.527v4.671L6.512,15.367A4.861,4.861,0,0,1,6.006,13.418Zm8.559,2.922A5.12,5.12,0,0,1,8.624,17.5l1.936-1.936h0L13.121,13h4.072A23.562,23.562,0,0,1,14.565,16.34Z"/></svg>