<svg id="Layer_1" data-name="Layer 1" xmlns="http://www.w3.org/2000/svg" viewBox="0 0 24 24"><path d="M16,16.5A1.5,1.5,0,0,1,14.5,18h-5a1.5,1.5,0,0,1,0-3h5A1.5,1.5,0,0,1,16,16.5ZM8.939,12.561a1.5,1.5,0,0,0,2.122,0l.939-.94.939.94a1.5,1.5,0,0,0,2.122-2.122l-.94-.939.94-.939a1.5,1.5,0,0,0-2.122-2.122L12,7.379l-.939-.94A1.5,1.5,0,0,0,8.939,8.561l.94.939-.94.939A1.5,1.5,0,0,0,8.939,12.561ZM5.5,15h-4a1.5,1.5,0,0,0,0,3h4a1.5,1.5,0,0,0,0-3ZM6.561,6.439a1.5,1.5,0,0,0-2.122,0l-.939.94-.939-.94A1.5,1.5,0,0,0,.439,8.561l.94.939-.94.939a1.5,1.5,0,0,0,2.122,2.122l.939-.94.939.94a1.5,1.5,0,0,0,2.122-2.122L5.621,9.5l.94-.939A1.5,1.5,0,0,0,6.561,6.439ZM22.5,15h-4a1.5,1.5,0,0,0,0,3h4a1.5,1.5,0,0,0,0-3Zm.121-5.5.94-.939a1.5,1.5,0,0,0-2.122-2.122l-.939.94-.939-.94a1.5,1.5,0,0,0-2.122,2.122l.94.939-.94.939a1.5,1.5,0,0,0,2.122,2.122l.939-.94.939.94a1.5,1.5,0,0,0,2.122-2.122Z"/></svg>