<svg id="Layer_1" data-name="Layer 1" xmlns="http://www.w3.org/2000/svg" viewBox="0 0 24 24"><path d="M8,10.5A1.5,1.5,0,0,1,9.5,9h1V8a1.5,1.5,0,0,1,3,0V9h1a1.5,1.5,0,0,1,0,3h-1v1a1.5,1.5,0,0,1-3,0V12h-1A1.5,1.5,0,0,1,8,10.5ZM15.5,16h-7a1.5,1.5,0,0,0,0,3h7a1.5,1.5,0,0,0,0-3ZM22,7.5v11A5.506,5.506,0,0,1,16.5,24h-9A5.506,5.506,0,0,1,2,18.5V7.5A5.507,5.507,0,0,1,7.337,2,3.5,3.5,0,0,1,10.5,0h3a3.5,3.5,0,0,1,3.163,2A5.507,5.507,0,0,1,22,7.5Zm-3,0A2.5,2.5,0,0,0,16.5,5h-1A1.5,1.5,0,0,1,14,3.5a.5.5,0,0,0-.5-.5h-3a.5.5,0,0,0-.5.5A1.5,1.5,0,0,1,8.5,5h-1A2.5,2.5,0,0,0,5,7.5v11A2.5,2.5,0,0,0,7.5,21h9A2.5,2.5,0,0,0,19,18.5Z"/></svg>