<svg id="Bold" xmlns="http://www.w3.org/2000/svg" viewBox="0 0 24 24"><title>52 link</title><path d="M10.407,19.61a4.391,4.391,0,0,1-5.943.349,4.242,4.242,0,0,1-1.44-3.67,4.511,4.511,0,0,1,1.353-2.68l2.876-2.878a1.5,1.5,0,0,0,0-2.121h0a1.5,1.5,0,0,0-2.121,0L2.317,11.426A7.627,7.627,0,0,0,.03,16.083a7.256,7.256,0,0,0,12.353,5.793l3.008-3.007a1.5,1.5,0,0,0,0-2.121h0a1.5,1.5,0,0,0-2.121,0Z"/><path d="M21.157,1.494A7.424,7.424,0,0,0,11.44,2.3L8.609,5.132a1.5,1.5,0,0,0,0,2.121h0a1.5,1.5,0,0,0,2.121,0l2.876-2.873a4.383,4.383,0,0,1,5.833-.42,4.259,4.259,0,0,1,.316,6.3l-3.008,3.008a1.5,1.5,0,0,0,0,2.121h0a1.5,1.5,0,0,0,2.121,0l3.008-3.008A7.263,7.263,0,0,0,21.157,1.494Z"/><rect x="7.204" y="10.501" width="9.591" height="3" rx="1.5" transform="translate(-4.971 12) rotate(-45)"/></svg>