<svg id="Layer_1" data-name="Layer 1" xmlns="http://www.w3.org/2000/svg" viewBox="0 0 24 24"><path d="M22.448,19H15.1a3.507,3.507,0,0,0-1.65-1.649V14c1.045,0,1.935-.01,2.4-.019a5.47,5.47,0,0,0,1.106-.133,5.141,5.141,0,0,0,.155-10.009l-.185-.043c-.056-.013-.141-.033-.129-.009a.456.456,0,0,1-.025-.049A6.222,6.222,0,0,0,10.148.065,6.029,6.029,0,0,0,5.14,4.608a5.933,5.933,0,0,0-.124,2.3,3.74,3.74,0,0,0,.822,6.943,4.094,4.094,0,0,0,.9.127C7.3,13.991,8.8,14,10.448,14v3.351A3.507,3.507,0,0,0,8.8,19H1.448a1.5,1.5,0,0,0,0,3H8.8a3.479,3.479,0,0,0,6.3,0h7.35a1.5,1.5,0,0,0,0-3ZM6.583,10.943a.789.789,0,0,1-.549-.522.837.837,0,0,1,.546-.943A2.444,2.444,0,0,0,8.024,6.7,2.979,2.979,0,0,1,8.05,5.334a3.084,3.084,0,0,1,2.52-2.3A3.544,3.544,0,0,1,11.05,3,3.2,3.2,0,0,1,14.013,4.91l0,0a3.049,3.049,0,0,0,2.334,1.823,2.141,2.141,0,0,1-.046,4.179,2.546,2.546,0,0,1-.508.062c-1.548.028-7.719.034-8.977,0A1.093,1.093,0,0,1,6.583,10.943Z"/></svg>