<svg id="Layer_1" data-name="Layer 1" xmlns="http://www.w3.org/2000/svg" viewBox="0 0 24 24"><path d="M17.937,2.27A8.839,8.839,0,0,0,10.954.06a9.173,9.173,0,0,0-5.1,15.75C6.809,16.711,7,18,7,19.779v.153A4.049,4.049,0,0,0,11.021,24h1.958A4.049,4.049,0,0,0,17,19.932v-.523c0-1.67.15-2.709.942-3.415a9.223,9.223,0,0,0,0-13.724ZM14,19.932A1.046,1.046,0,0,1,12.979,21H11.021A1.046,1.046,0,0,1,10,19.932v-.153c0-.259,0-.519-.014-.779h4.02c0,.137-.006.274-.006.409Zm1.945-6.177A5.292,5.292,0,0,0,14.457,16H13.5V11.083A2.993,2.993,0,0,0,15,8.5a1.5,1.5,0,0,0-3,0,1.5,1.5,0,0,0-3,0,2.993,2.993,0,0,0,1.5,2.583V16H9.462a6.061,6.061,0,0,0-1.54-2.368A6.18,6.18,0,0,1,6.051,8.319,6.087,6.087,0,0,1,11.3,3.041,5.989,5.989,0,0,1,12,3,5.861,5.861,0,0,1,15.94,4.509a6.222,6.222,0,0,1,.005,9.246Z"/></svg>