<svg id="Layer_1" data-name="Layer 1" xmlns="http://www.w3.org/2000/svg" viewBox="0 0 24 24"><path d="M19.5,0A4.505,4.505,0,0,0,15,4.5a1.5,1.5,0,0,0,3,0,1.5,1.5,0,0,1,3,0v9.107a5.47,5.47,0,0,0-6.845,1.534,3.943,3.943,0,0,0-4.31,0A5.47,5.47,0,0,0,3,13.607V4.5a1.5,1.5,0,0,1,3,0,1.5,1.5,0,0,0,3,0,4.5,4.5,0,0,0-9,0v14a5.5,5.5,0,0,0,11,0,1,1,0,0,1,2,0,5.5,5.5,0,0,0,11,0V4.5A4.505,4.505,0,0,0,19.5,0ZM5.5,21A2.5,2.5,0,1,1,8,18.5,2.5,2.5,0,0,1,5.5,21Zm13,0A2.5,2.5,0,1,1,21,18.5,2.5,2.5,0,0,1,18.5,21Z"/></svg>