<svg id="Layer_1" data-name="Layer 1" xmlns="http://www.w3.org/2000/svg" viewBox="0 0 24 24"><path d="M18.5,5H17V3.5A3.5,3.5,0,0,0,13.5,0h-3A3.5,3.5,0,0,0,7,3.5V5H5.5A5.506,5.506,0,0,0,0,10.5v8A5.506,5.506,0,0,0,5.5,24h13A5.506,5.506,0,0,0,24,18.5v-8A5.506,5.506,0,0,0,18.5,5ZM10,3.5a.5.5,0,0,1,.5-.5h3a.5.5,0,0,1,.5.5V5H10Zm11,15A2.5,2.5,0,0,1,18.5,21H5.5A2.5,2.5,0,0,1,3,18.5v-8A2.5,2.5,0,0,1,5.5,8h13A2.5,2.5,0,0,1,21,10.5Zm-4.5-4A1.5,1.5,0,0,1,15,16H13.5v1.5a1.5,1.5,0,0,1-3,0V16H9a1.5,1.5,0,0,1,0-3h1.5V11.5a1.5,1.5,0,0,1,3,0V13H15A1.5,1.5,0,0,1,16.5,14.5Z"/></svg>