<svg id="Layer_1" data-name="Layer 1" xmlns="http://www.w3.org/2000/svg" viewBox="0 0 24 24"><path d="M20,11a4,4,0,0,0-4,4v5a4,4,0,0,0,8,0V15A4,4,0,0,0,20,11Zm1,9a1,1,0,0,1-2,0V15a1,1,0,0,1,2,0Z"/><path d="M10.5,15a4.445,4.445,0,0,0-1.5.276v-.193A1.084,1.084,0,0,1,10.083,14H11.5a1.5,1.5,0,0,0,0-3H10.083A4.088,4.088,0,0,0,6,15.083V19.5a1.512,1.512,0,0,0,.031.3A4.49,4.49,0,1,0,10.5,15Zm0,6A1.5,1.5,0,1,1,12,19.5,1.5,1.5,0,0,1,10.5,21Z"/><path d="M22.293,2.707,20.97,4.03A12,12,0,0,0,1.5,17.811a1.5,1.5,0,1,0,2.624-1.454A8.992,8.992,0,0,1,18.834,6.166L17.707,7.293A1,1,0,0,0,18.414,9H23a1,1,0,0,0,1-1V3.414A1,1,0,0,0,22.293,2.707Z"/></svg>