<svg id="Layer_1" data-name="Layer 1" xmlns="http://www.w3.org/2000/svg" viewBox="0 0 24 24"><path d="M17,17.5A1.5,1.5,0,0,1,15.5,19h-7a1.5,1.5,0,0,1,0-3h7A1.5,1.5,0,0,1,17,17.5ZM22,7.157V18.5A5.506,5.506,0,0,1,16.5,24h-9A5.506,5.506,0,0,1,2,18.5V5.5A5.506,5.506,0,0,1,7.5,0h7.343a5.464,5.464,0,0,1,3.889,1.611l1.657,1.657A5.464,5.464,0,0,1,22,7.157ZM18.985,7H17a2,2,0,0,1-2-2V3.016C14.947,3.012,7.5,3,7.5,3A2.5,2.5,0,0,0,5,5.5v13A2.5,2.5,0,0,0,7.5,21h9A2.5,2.5,0,0,0,19,18.5S18.988,7.053,18.985,7ZM14.5,9h-5a2.5,2.5,0,0,0,0,5h5a2.5,2.5,0,0,0,0-5Z"/></svg>