<svg id="Layer_1" data-name="Layer 1" xmlns="http://www.w3.org/2000/svg" viewBox="0 0 24 24"><path d="M11,9.5A1.5,1.5,0,1,1,9.5,8,1.5,1.5,0,0,1,11,9.5ZM14.5,8A1.5,1.5,0,1,0,16,9.5,1.5,1.5,0,0,0,14.5,8Zm-5,5A1.5,1.5,0,1,0,11,14.5,1.5,1.5,0,0,0,9.5,13Zm5,0A1.5,1.5,0,1,0,16,14.5,1.5,1.5,0,0,0,14.5,13ZM24,9.5v5A5.506,5.506,0,0,1,18.5,20H5.5A5.506,5.506,0,0,1,0,14.5v-5A5.506,5.506,0,0,1,5.5,4h13A5.506,5.506,0,0,1,24,9.5ZM18.5,17a2.5,2.5,0,0,0,.5-.051v-9.9A2.5,2.5,0,0,0,18.5,7H5.5a2.5,2.5,0,0,0-.5.051v9.9A2.5,2.5,0,0,0,5.5,17Z"/></svg>