<svg id="Layer_1" data-name="Layer 1" xmlns="http://www.w3.org/2000/svg" viewBox="0 0 24 24"><path d="M22.082,19.961A7.585,7.585,0,0,0,23.975,15.5a8.111,8.111,0,0,0-5.749-8.434.489.489,0,0,1-.328-.335A8.189,8.189,0,0,0,4.939,2.818L2.561.439A1.5,1.5,0,0,0,.439,2.561l21,21a1.5,1.5,0,0,0,2.122-2.122ZM9.31,4.057a5.172,5.172,0,0,1,5.724,3.565,3.5,3.5,0,0,0,2.313,2.313,5.126,5.126,0,0,1,3.637,5.33,4.556,4.556,0,0,1-1.037,2.561L7.091,4.97A5.068,5.068,0,0,1,9.31,4.057ZM16,21.5A1.5,1.5,0,0,1,14.5,23H5.97A6.061,6.061,0,0,1,.06,18.063,5.76,5.76,0,0,1,2.346,12.6a.45.45,0,0,0,.109-.532,7.966,7.966,0,0,1-.374-1.259,1.5,1.5,0,1,1,2.935-.618,5.041,5.041,0,0,0,.235.791,3.411,3.411,0,0,1-1.126,4.033,2.729,2.729,0,0,0-1.1,2.623A3.1,3.1,0,0,0,5.97,20H14.5A1.5,1.5,0,0,1,16,21.5Z"/></svg>