<svg id="Layer_1" data-name="Layer 1" xmlns="http://www.w3.org/2000/svg" viewBox="0 0 24 24"><path d="M18.5,0H5.5A5.506,5.506,0,0,0,0,5.5v8A5.506,5.506,0,0,0,5.5,19h5v2h-3a1.5,1.5,0,0,0,0,3h9a1.5,1.5,0,0,0,0-3h-3V19h5A5.506,5.506,0,0,0,24,13.5v-8A5.506,5.506,0,0,0,18.5,0ZM21,13.5A2.5,2.5,0,0,1,18.5,16H5.5A2.5,2.5,0,0,1,3,13.5v-8A2.5,2.5,0,0,1,5.5,3h13A2.5,2.5,0,0,1,21,5.5Zm-2-4A1.5,1.5,0,0,1,17.5,11H16.3l-1.555,2.332A1.5,1.5,0,0,1,13.5,14q-.047,0-.093,0a1.5,1.5,0,0,1-1.249-.826L10.314,9.483l-.566.849A1.5,1.5,0,0,1,8.5,11h-2a1.5,1.5,0,0,1,0-3H7.7L9.252,5.668a1.5,1.5,0,0,1,2.59.161l1.844,3.688.566-.849A1.5,1.5,0,0,1,15.5,8h2A1.5,1.5,0,0,1,19,9.5Z"/></svg>