<svg id="Layer_1" data-name="Layer 1" xmlns="http://www.w3.org/2000/svg" viewBox="0 0 24 24"><path d="M18.5,24h-1a1.5,1.5,0,0,1,0-3h1A2.5,2.5,0,0,0,21,18.5v-1a1.5,1.5,0,0,1,3,0v1A5.506,5.506,0,0,1,18.5,24ZM24,6.5v-1A5.506,5.506,0,0,0,18.5,0h-1a1.5,1.5,0,0,0,0,3h1A2.5,2.5,0,0,1,21,5.5v1a1.5,1.5,0,0,0,3,0ZM8,22.5A1.5,1.5,0,0,0,6.5,21h-1A2.5,2.5,0,0,1,3,18.5v-1a1.5,1.5,0,0,0-3,0v1A5.506,5.506,0,0,0,5.5,24h1A1.5,1.5,0,0,0,8,22.5ZM3,6.5v-1A2.5,2.5,0,0,1,5.5,3h1a1.5,1.5,0,0,0,0-3h-1A5.506,5.506,0,0,0,0,5.5v1a1.5,1.5,0,0,0,3,0ZM16,12a4,4,0,1,0-4,4A4,4,0,0,0,16,12Z"/></svg>