<svg id="Layer_1" data-name="Layer 1" xmlns="http://www.w3.org/2000/svg" viewBox="0 0 24 24"><path d="M12,24a1.494,1.494,0,0,1-.671-.159l-.38-.191C8.852,22.6,2,18.671,2,12.151v-5.1a5.273,5.273,0,0,1,3.617-5.01L11.528.076a1.508,1.508,0,0,1,.944,0l5.911,1.96A5.273,5.273,0,0,1,22,7.046v5.1c0,7.37-6.922,10.728-9.043,11.581l-.394.159A1.49,1.49,0,0,1,12,24ZM12,3.08l-5.439,1.8A2.274,2.274,0,0,0,5,7.046v5.1c0,4.607,5.143,7.705,7.068,8.7,1.9-.808,6.932-3.444,6.932-8.7v-5.1a2.274,2.274,0,0,0-1.561-2.162Zm1.5,9.42v-6a1.5,1.5,0,0,0-3,0v6a1.5,1.5,0,0,0,3,0ZM12,15a1.5,1.5,0,1,0,1.5,1.5A1.5,1.5,0,0,0,12,15Z"/></svg>