<svg id="Layer_1" data-name="Layer 1" xmlns="http://www.w3.org/2000/svg" viewBox="0 0 24 24"><path d="M18.5,0H5.5A5.507,5.507,0,0,0,0,5.5v13A5.507,5.507,0,0,0,5.5,24h13A5.507,5.507,0,0,0,24,18.5V5.5A5.507,5.507,0,0,0,18.5,0Zm2.449,5H16V3h2.5A2.5,2.5,0,0,1,20.949,5ZM11,3h2V7a1,1,0,0,1-2,0ZM5.5,3H8V5H3.051A2.5,2.5,0,0,1,5.5,3Zm13,18H5.5A2.5,2.5,0,0,1,3,18.5V8H8.142a3.981,3.981,0,0,0,7.716,0H21V18.5A2.5,2.5,0,0,1,18.5,21Zm.5-3.5A1.5,1.5,0,0,1,17.5,19h-3a1.5,1.5,0,0,1,0-3h3A1.5,1.5,0,0,1,19,17.5Z"/></svg>