<svg id="Layer_1" data-name="Layer 1" xmlns="http://www.w3.org/2000/svg" viewBox="0 0 24 24"><path d="M23.561,4.439l-4-4a1.5,1.5,0,0,0-2.122,2.122l.94.939L17.04,4.839a5.457,5.457,0,0,0-6.778.771L5.18,10.683a7.452,7.452,0,0,0-2.195,5.3v2.9L.437,21.442a1.5,1.5,0,1,0,2.126,2.116L5.109,21H8a7.438,7.438,0,0,0,5.3-2.2l5.082-5.073a5.5,5.5,0,0,0,.781-6.767L20.5,5.621l.939.94a1.5,1.5,0,0,0,2.122-2.122ZM16.255,11.61l-5.082,5.073A4.464,4.464,0,0,1,8,18H5.985V15.985a4.515,4.515,0,0,1,.3-1.582l1.157,1.158a1.5,1.5,0,0,0,2.122-2.122L8.114,11.992l1.88-1.877,1.445,1.446a1.5,1.5,0,0,0,2.122-2.122L12.117,8l.265-.265a2.555,2.555,0,0,1,3.529,0l.343.344A2.5,2.5,0,0,1,16.255,11.61Z"/></svg>