<svg id="Layer_1" data-name="Layer 1" xmlns="http://www.w3.org/2000/svg" viewBox="0 0 24 24"><path d="M22.562,8.5A4.994,4.994,0,0,0,19,0H5A4.994,4.994,0,0,0,1.438,8.5a4.978,4.978,0,0,0,0,7A4.994,4.994,0,0,0,5,24H19a4.994,4.994,0,0,0,3.562-8.5,4.978,4.978,0,0,0,0-7ZM5,14a2,2,0,0,1,0-4v.5a1.5,1.5,0,0,0,3,0V10h2v.5a1.5,1.5,0,0,0,3,0V10h6a2,2,0,0,1,0,4ZM5,3v.5a1.5,1.5,0,0,0,3,0V3h2v.5a1.5,1.5,0,0,0,3,0V3h6a2,2,0,0,1,0,4H5A2,2,0,0,1,5,3ZM19,21H5a2,2,0,0,1,0-4v.5a1.5,1.5,0,0,0,3,0V17h2v.5a1.5,1.5,0,0,0,3,0V17h6a2,2,0,0,1,0,4Z"/></svg>