<svg id="Layer_1" data-name="Layer 1" xmlns="http://www.w3.org/2000/svg" viewBox="0 0 24 24"><path d="M24,9.876a9.518,9.518,0,0,0-2.769-7.1A9.988,9.988,0,0,0,8.74,1.716,4.989,4.989,0,1,0,4.033,9.9,11.369,11.369,0,0,0,5.081,15,.483.483,0,0,1,5,15.578L1.186,18.242l0,.014a3.238,3.238,0,1,0,4.634,4.459l.01.006L8.4,19a.5.5,0,0,1,.6-.119,10.7,10.7,0,0,0,4.462,1.157,7.468,7.468,0,0,0,1.144-.08,9.908,9.908,0,0,0,6.251-2.919A10.565,10.565,0,0,0,24,9.876ZM3,5A2,2,0,1,1,5,7,2,2,0,0,1,3,5ZM15.378,16.8,7.746,9.171A5,5,0,0,0,10,5a4.816,4.816,0,0,0-.049-.483A7.028,7.028,0,0,1,19.1,4.9,6.543,6.543,0,0,1,21,9.785a7.587,7.587,0,0,1-2.261,5.133A6.93,6.93,0,0,1,15.378,16.8Z"/></svg>