<svg id="Layer_1" data-name="Layer 1" xmlns="http://www.w3.org/2000/svg" viewBox="0 0 24 24"><path d="M18.5,24H5.5A5.506,5.506,0,0,1,0,18.5V5.5A5.506,5.506,0,0,1,5.5,0h13A5.506,5.506,0,0,1,24,5.5v13A5.506,5.506,0,0,1,18.5,24ZM5.5,3A2.5,2.5,0,0,0,3,5.5v13A2.5,2.5,0,0,0,5.5,21h13A2.5,2.5,0,0,0,21,18.5V5.5A2.5,2.5,0,0,0,18.5,3ZM19,7h0a2,2,0,0,0-2-2H7A2,2,0,0,0,5,7H5A2,2,0,0,0,7,9H17A2,2,0,0,0,19,7ZM6.5,11.5A1.5,1.5,0,1,0,8,13,1.5,1.5,0,0,0,6.5,11.5Zm5,0A1.5,1.5,0,1,0,13,13,1.5,1.5,0,0,0,11.5,11.5ZM6.5,16A1.5,1.5,0,1,0,8,17.5,1.5,1.5,0,0,0,6.5,16Zm5,0A1.5,1.5,0,1,0,13,17.5,1.5,1.5,0,0,0,11.5,16ZM19,17.5A1.5,1.5,0,0,0,17.5,16h-1a1.5,1.5,0,0,0,0,3h1A1.5,1.5,0,0,0,19,17.5ZM19,13a1.5,1.5,0,0,0-1.5-1.5h-1a1.5,1.5,0,0,0,0,3h1A1.5,1.5,0,0,0,19,13Z"/></svg>