<svg id="Layer_1" data-name="Layer 1" xmlns="http://www.w3.org/2000/svg" viewBox="0 0 24 24"><path d="M18.5,0h-8A5.507,5.507,0,0,0,5,5.5v4.525A5.507,5.507,0,0,0,0,15.5v3A5.507,5.507,0,0,0,5.5,24h3a5.507,5.507,0,0,0,5.475-5H18.5A5.507,5.507,0,0,0,24,13.5v-8A5.507,5.507,0,0,0,18.5,0ZM8.5,21h-3A2.5,2.5,0,0,1,3,18.5v-3a2.5,2.5,0,0,1,2-2.449V13.5A5.507,5.507,0,0,0,10.5,19h.449A2.5,2.5,0,0,1,8.5,21ZM21,13.5A2.5,2.5,0,0,1,18.5,16H14v-.5a5.456,5.456,0,0,0-.7-2.678l2.7-2.7V11.5a1.5,1.5,0,0,0,3,0v-3A3.5,3.5,0,0,0,15.5,5h-3a1.5,1.5,0,0,0,0,3h1.379l-2.7,2.7A5.456,5.456,0,0,0,8.5,10H8V5.5A2.5,2.5,0,0,1,10.5,3h8A2.5,2.5,0,0,1,21,5.5Z"/></svg>