<svg id="Layer_1" data-name="Layer 1" xmlns="http://www.w3.org/2000/svg" viewBox="0 0 24 24"><path d="M16.632,24H7.368a4.379,4.379,0,0,1-3.319-1.523,4.307,4.307,0,0,1-1-3.451A12.207,12.207,0,0,1,6.983,12,12.207,12.207,0,0,1,3.048,4.975a4.307,4.307,0,0,1,1-3.451A4.379,4.379,0,0,1,7.368,0h9.264A4.378,4.378,0,0,1,19.95,1.523a4.3,4.3,0,0,1,1,3.448A12.235,12.235,0,0,1,17.012,12a12.234,12.234,0,0,1,3.94,7.03,4.3,4.3,0,0,1-1,3.447A4.378,4.378,0,0,1,16.632,24Zm0-21H7.368a1.382,1.382,0,0,0-1.046.48,1.3,1.3,0,0,0-.307,1.048c.337,2.243,1.746,4.362,4.188,6.3a1.5,1.5,0,0,1,0,2.352c-2.442,1.933-3.851,4.052-4.188,6.3a1.3,1.3,0,0,0,.307,1.048A1.382,1.382,0,0,0,7.368,21h9.264a1.384,1.384,0,0,0,1.046-.481,1.294,1.294,0,0,0,.307-1.044c-.335-2.236-1.745-4.355-4.191-6.3a1.5,1.5,0,0,1,0-2.348c2.446-1.946,3.856-4.065,4.191-6.3a1.3,1.3,0,0,0-.307-1.045A1.384,1.384,0,0,0,16.632,3Z"/></svg>