<svg id="Layer_1" data-name="Layer 1" xmlns="http://www.w3.org/2000/svg" viewBox="0 0 24 24"><path d="M17.024,12a12.231,12.231,0,0,0,3.941-7.029,4.306,4.306,0,0,0-1-3.448A4.378,4.378,0,0,0,16.645,0H7.381A4.38,4.38,0,0,0,4.062,1.524a4.307,4.307,0,0,0-1,3.451A12.2,12.2,0,0,0,7,12a12.2,12.2,0,0,0-3.936,7.025,4.307,4.307,0,0,0,1,3.451A4.38,4.38,0,0,0,7.381,24h9.264a4.378,4.378,0,0,0,3.318-1.523,4.3,4.3,0,0,0,1-3.447A12.23,12.23,0,0,0,17.024,12Zm.666,8.519A1.381,1.381,0,0,1,16.645,21H7.381a1.382,1.382,0,0,1-1.046-.48,1.3,1.3,0,0,1-.307-1.048c.337-2.244,1.746-4.363,4.188-6.294a1.5,1.5,0,0,0,0-2.354C7.774,8.892,6.365,6.773,6.028,4.529a1.3,1.3,0,0,1,.307-1.048A1.382,1.382,0,0,1,7.381,3h9.264a1.381,1.381,0,0,1,1.045.481A1.3,1.3,0,0,1,18,4.526c-.335,2.235-1.745,4.354-4.191,6.3a1.5,1.5,0,0,0,0,2.348c2.446,1.946,3.856,4.065,4.191,6.3A1.294,1.294,0,0,1,17.69,20.519Z"/><path d="M12.836,15.213l-.294-.235a.871.871,0,0,0-1.081,0l-.3.238a6.547,6.547,0,0,0-2.1,2.592A.869.869,0,0,0,9.868,19h4.263a.868.868,0,0,0,.8-1.194A6.59,6.59,0,0,0,12.836,15.213Z"/></svg>