<svg id="Layer_1" data-name="Layer 1" xmlns="http://www.w3.org/2000/svg" viewBox="0 0 24 24"><path d="M15.991,5a2.512,2.512,0,0,0-2.4,1.793L9.578,20.424A2.175,2.175,0,0,1,7.5,22a2.247,2.247,0,0,1-2.091-1.488l-2.31-6.7a2.936,2.936,0,0,0-1.952-1.85,1.5,1.5,0,0,1,.706-2.916,5.938,5.938,0,0,1,4.074,3.765l1.491,4.33,3.3-11.191A5.53,5.53,0,0,1,15.991,2H22.5a1.5,1.5,0,0,1,0,3ZM23.4,11.3a1.5,1.5,0,0,0-2.1.3L19.5,14l-1.8-2.4a1.5,1.5,0,1,0-2.4,1.8l2.325,3.1L15.3,19.6a1.5,1.5,0,1,0,2.4,1.8L19.5,19l1.8,2.4a1.5,1.5,0,0,0,2.4-1.8l-2.325-3.1L23.7,13.4A1.5,1.5,0,0,0,23.4,11.3Z"/></svg>