<svg id="Layer_1" data-name="Layer 1" xmlns="http://www.w3.org/2000/svg" viewBox="0 0 24 24"><path d="M22.5,18A1.5,1.5,0,0,0,21,19.5,1.5,1.5,0,0,1,19.5,21h-3V18h1.119a4.406,4.406,0,0,0,4.4-4.4,6.5,6.5,0,0,0-5.186-6.365L13.4,6.45a1.54,1.54,0,0,1-1.208-1.363l-.4-2.082A3.5,3.5,0,0,0,7.567.083c-.044.01-4.294,1.355-4.294,1.355A4.52,4.52,0,0,0,0,5.769V13.5A4.505,4.505,0,0,0,4.5,18v3h-3a1.5,1.5,0,0,0,0,3h18A4.505,4.505,0,0,0,24,19.5,1.5,1.5,0,0,0,22.5,18ZM3,13.5V5.769A1.522,1.522,0,0,1,4.136,4.312L8.261,3.005a.467.467,0,0,1,.349.085.557.557,0,0,1,.223.411l.289,1.493L7.494,5A1.5,1.5,0,0,0,7.5,8h.006l2.847-.01c.064.07.133.135.2.2L9.382,9.5a1.5,1.5,0,1,0,2.236,2l1.769-1.977,2.819.644A3.511,3.511,0,0,1,19.02,13.6a1.4,1.4,0,0,1-1.4,1.4H4.5A1.5,1.5,0,0,1,3,13.5ZM7.5,18h6v3h-6Z"/></svg>