<svg id="Layer_1" data-name="Layer 1" xmlns="http://www.w3.org/2000/svg" viewBox="0 0 24 24"><path d="M19.5,21H19v-.655a4.515,4.515,0,0,0-1.376-3.229A8.361,8.361,0,0,1,15.067,11H16a1.5,1.5,0,0,0,0-3h-.722a3.97,3.97,0,0,0,.747-2.312,10.541,10.541,0,0,0-1.681-4.416A2.734,2.734,0,0,0,12.026,0h0A2.731,2.731,0,0,0,9.708,1.272,10.523,10.523,0,0,0,8.026,5.688,3.964,3.964,0,0,0,8.774,8H8.5a1.5,1.5,0,0,0,0,3h.457a8.378,8.378,0,0,1-2.582,6.116A4.518,4.518,0,0,0,5,20.345V21H4.5a1.5,1.5,0,0,0,0,3h15a1.5,1.5,0,0,0,0-3ZM12.058,11a11.586,11.586,0,0,0,3.216,8H8.726a11.583,11.583,0,0,0,3.24-8Z"/></svg>