<svg id="Layer_1" data-name="Layer 1" xmlns="http://www.w3.org/2000/svg" viewBox="0 0 24 24"><path d="M24,22.5A1.5,1.5,0,0,1,22.5,24H1.5a1.5,1.5,0,0,1,0-3h21A1.5,1.5,0,0,1,24,22.5ZM.37,9.341A3.03,3.03,0,0,1,.5,6.228,5.1,5.1,0,0,1,2.285,4.559L9.444.652a5.314,5.314,0,0,1,5.112,0l7.16,3.907A5.106,5.106,0,0,1,23.5,6.226a3.032,3.032,0,0,1,.134,3.115A3.126,3.126,0,0,1,21,10.991V16h.5a1.5,1.5,0,0,1,0,3H2.5a1.5,1.5,0,0,1,0-3H3V10.991A3.126,3.126,0,0,1,.37,9.341ZM6,16H8V11H6Zm5-5v5h2V11Zm7,5V11H16v5ZM3,7.887A.14.14,0,0,0,3.131,8H20.869A.145.145,0,0,0,21,7.885a2.145,2.145,0,0,0-.721-.693h0l-7.16-3.906a2.325,2.325,0,0,0-2.236,0L3.722,7.192A2.1,2.1,0,0,0,3,7.887Z"/></svg>