<svg id="Layer_1" data-name="Layer 1" xmlns="http://www.w3.org/2000/svg" viewBox="0 0 24 24"><path d="M12,14.223a1.5,1.5,0,0,1-1.5-1.5V12.5a2.611,2.611,0,0,1,1.785-2.543,1.007,1.007,0,0,0,.677-1.25.975.975,0,0,0-.67-.671,1.031,1.031,0,0,0-.82.112,1.006,1.006,0,0,0-.452.649,1.5,1.5,0,1,1-2.94-.6,4,4,0,0,1,4.961-3.067,4,4,0,0,1,.459,7.575v.016A1.5,1.5,0,0,1,12,14.223Zm.563,9.668.394-.159C15.078,22.879,22,19.521,22,12.151v-5.1a5.273,5.273,0,0,0-3.617-5.01L12.472.076a1.508,1.508,0,0,0-.944,0L5.617,2.036A5.273,5.273,0,0,0,2,7.046v5.1c0,6.52,6.852,10.451,8.951,11.5l.38.191a1.5,1.5,0,0,0,1.232.05ZM17.439,4.884A2.274,2.274,0,0,1,19,7.046v5.1c0,5.259-5.03,7.9-6.932,8.7-1.925-1-7.068-4.1-7.068-8.7v-5.1A2.274,2.274,0,0,1,6.561,4.884L12,3.08ZM12,15a1.5,1.5,0,1,0,1.5,1.5A1.5,1.5,0,0,0,12,15Z"/></svg>