<svg id="Layer_1" data-name="Layer 1" xmlns="http://www.w3.org/2000/svg" viewBox="0 0 24 24"><path d="M22.374,1.038a4.5,4.5,0,0,0-3.7-.96L9.486,1.8A5.5,5.5,0,0,0,5,7.206v8.935A3.977,3.977,0,0,0,4,16a4,4,0,1,0,4,4V12a1.5,1.5,0,0,1,1.224-1.474l11.183-2.1a.477.477,0,0,1,.412.106A.5.5,0,0,1,21,8.92v4.221A3.992,3.992,0,1,0,24,17V4.5A4.488,4.488,0,0,0,22.374,1.038ZM19.855,5.479,8.671,7.577A4.527,4.527,0,0,0,8,7.766v-.56a2.5,2.5,0,0,1,2.039-2.457l9.185-1.722A1.5,1.5,0,0,1,21,4.5v.976A3.52,3.52,0,0,0,19.855,5.479Z"/></svg>