<svg id="Bold" xmlns="http://www.w3.org/2000/svg" viewBox="0 0 24 24"><title>73 collection</title><path d="M5.5,11A5.5,5.5,0,1,1,11,5.5,5.506,5.506,0,0,1,5.5,11Zm0-8A2.5,2.5,0,1,0,8,5.5,2.5,2.5,0,0,0,5.5,3Z"/><path d="M18.5,11A5.5,5.5,0,1,1,24,5.5,5.506,5.506,0,0,1,18.5,11Zm0-8A2.5,2.5,0,1,0,21,5.5,2.5,2.5,0,0,0,18.5,3Z"/><path d="M5.5,24A5.5,5.5,0,1,1,11,18.5,5.506,5.506,0,0,1,5.5,24Zm0-8A2.5,2.5,0,1,0,8,18.5,2.5,2.5,0,0,0,5.5,16Z"/><path d="M18.5,24A5.5,5.5,0,1,1,24,18.5,5.506,5.506,0,0,1,18.5,24Zm0-8A2.5,2.5,0,1,0,21,18.5,2.5,2.5,0,0,0,18.5,16Z"/></svg>