<svg id="Layer_1" data-name="Layer 1" xmlns="http://www.w3.org/2000/svg" viewBox="0 0 24 24"><path d="M20.389,4.268,17.732,1.611A5.462,5.462,0,0,0,13.843,0H7.5A5.506,5.506,0,0,0,2,5.5v13A5.506,5.506,0,0,0,7.5,24h9A5.506,5.506,0,0,0,22,18.5V8.157A5.464,5.464,0,0,0,20.389,4.268ZM16.5,21h-9A2.5,2.5,0,0,1,5,18.5V5.5A2.5,2.5,0,0,1,7.5,3H13V7a2,2,0,0,0,2,2h4v9.5A2.5,2.5,0,0,1,16.5,21Zm.586-9.534a1.5,1.5,0,0,1-.052,2.12L13.448,17a3.5,3.5,0,0,1-4.923-.025L7,15.62a1.5,1.5,0,1,1,2-2.24l1.586,1.414A.584.584,0,0,0,11,15a.5.5,0,0,0,.353-.146l3.613-3.44A1.5,1.5,0,0,1,17.086,11.466Z"/></svg>