<?xml version="1.0" encoding="iso-8859-1"?>
<!-- Generator: Adobe Illustrator 19.0.0, SVG Export Plug-In . SVG Version: 6.00 Build 0)  -->
<svg version="1.1" id="Layer_1" xmlns="http://www.w3.org/2000/svg" xmlns:xlink="http://www.w3.org/1999/xlink" x="0px" y="0px"
	 viewBox="0 0 512 512" style="enable-background:new 0 0 512 512;" xml:space="preserve">
<path style="fill:#E9D286;" d="M128.776,160.731c-32.506,0-104.806,4.484-104.806,72.859s26.902,117.696,79.585,117.696
	s128.344-56.046,128.344-147.96C231.9,158.49,170.25,160.731,128.776,160.731z"/>
<path style="opacity:0.3;fill:#FFFFFF;enable-background:new    ;" d="M128.776,160.731c-32.506,0-104.806,4.484-104.806,72.859
	c0,29.455,4.997,55.368,14.892,75.33l145.86-145.86C166.474,160.352,145.905,160.731,128.776,160.731z"/>
<g>
	<rect x="128.773" y="152.581" style="fill:#394049;" width="254.437" height="16.3"/>
	<path style="fill:#394049;" d="M235.341,210.714l-6.882-14.777c6.153-2.866,16.192-4.509,27.541-4.509
		c11.349,0,21.388,1.643,27.541,4.509l-6.883,14.777c-2.957-1.377-10.14-2.985-20.658-2.985
		C245.483,207.729,238.298,209.337,235.341,210.714z"/>
	<path style="fill:#394049;" d="M103.556,359.437c-28.03,0-50.998-12.786-66.421-36.976c-13.944-21.871-21.314-52.601-21.314-88.871
		c0-36.956,19.596-81.009,112.956-81.009c1.846,0,3.733-0.004,5.652-0.009c32.669-0.072,73.331-0.174,93.58,20.029
		c7.99,7.972,12.043,18.31,12.043,30.725C240.051,300.047,160.551,359.437,103.556,359.437z M140.238,168.863
		c-1.965,0-3.891,0.004-5.772,0.009c-1.932,0.004-3.831,0.009-5.69,0.009c-25.696,0-45.756,3.306-61.331,10.107
		c-23.77,10.38-35.324,28.241-35.324,54.602c0,33.159,6.486,60.86,18.758,80.107c12.455,19.534,30.178,29.438,52.677,29.438
		c25.314,0,55.266-14.226,78.166-37.125c27.103-27.103,42.029-63.57,42.029-102.686c0-8.04-2.373-14.316-7.254-19.185
		C202.07,169.748,167.608,168.863,140.238,168.863z"/>
</g>
<path style="fill:#E9D286;" d="M383.218,160.731c32.506,0,104.806,4.484,104.806,72.859s-26.902,117.696-79.585,117.696
	c-52.683,0-128.345-56.046-128.345-147.96C280.093,158.49,341.743,160.731,383.218,160.731z"/>
<path style="opacity:0.2;fill:#FFFFFF;enable-background:new    ;" d="M461.775,179.29L326.927,314.138
	c25.09,24.001,55.995,37.147,81.51,37.147c52.683,0,79.585-49.32,79.585-117.696C488.022,206.979,477.069,190.048,461.775,179.29z"
	/>
<path style="fill:#394049;" d="M408.437,359.437c-56.996,0-136.495-59.39-136.495-156.11c0-12.417,4.052-22.753,12.042-30.725
	c20.25-20.203,60.917-20.105,93.581-20.029c1.919,0.004,3.805,0.009,5.651,0.009l0,0c93.36,0,112.956,44.053,112.956,81.009
	c0,36.27-7.37,67.001-21.314,88.871C459.436,346.65,436.467,359.437,408.437,359.437z M371.755,168.863
	c-27.37,0-61.83,0.883-76.257,15.278c-4.881,4.869-7.255,11.145-7.255,19.185c0,39.115,14.926,75.582,42.03,102.686
	c22.899,22.9,52.851,37.125,78.165,37.125c22.499,0,40.223-9.904,52.677-29.438c12.272-19.247,18.758-46.948,18.758-80.107
	c0-26.361-11.555-44.221-35.325-54.602c-15.573-6.802-35.636-10.107-61.331-10.107c-1.858,0-3.758-0.004-5.689-0.009
	C375.648,168.868,373.717,168.863,371.755,168.863z"/>
<path style="opacity:0.2;enable-background:new    ;" d="M32.12,233.59c0-1.809,0.06-3.575,0.17-5.305
	c-0.813-0.226-1.655-0.356-2.516-0.356H15.981c-0.108,1.901-0.161,3.79-0.161,5.662c0,7.738,0.356,15.207,1.019,22.41h12.934
	c1.166,0,2.303-0.227,3.367-0.635C32.475,248.409,32.12,241.15,32.12,233.59z"/>
<path style="opacity:0.2;enable-background:new    ;" d="M479.88,233.59c0-1.809-0.06-3.575-0.17-5.305
	c0.813-0.226,1.655-0.356,2.516-0.356h13.792c0.108,1.901,0.161,3.79,0.161,5.662c0,7.738-0.356,15.207-1.019,22.41h-12.934
	c-1.166,0-2.303-0.227-3.367-0.635C479.525,248.409,479.88,241.15,479.88,233.59z"/>
<g>
	<path style="fill:#394049;" d="M29.774,247.626H5.268c-2.91,0-5.268-2.359-5.268-5.268v-17.535c0-2.91,2.359-5.268,5.268-5.268
		h24.506c2.826,0,5.504,1.268,7.294,3.455l5.872,7.17c1.625,1.984,1.625,4.839,0,6.823l-5.872,7.17
		C35.277,246.358,32.601,247.626,29.774,247.626z"/>
	<path style="fill:#394049;" d="M482.226,247.626h24.506c2.91,0,5.268-2.359,5.268-5.268v-17.535c0-2.91-2.359-5.268-5.268-5.268
		h-24.506c-2.826,0-5.504,1.268-7.295,3.455l-5.872,7.17c-1.625,1.984-1.625,4.839,0,6.823l5.872,7.17
		C476.723,246.358,479.399,247.626,482.226,247.626z"/>
</g>
<g>
</g>
<g>
</g>
<g>
</g>
<g>
</g>
<g>
</g>
<g>
</g>
<g>
</g>
<g>
</g>
<g>
</g>
<g>
</g>
<g>
</g>
<g>
</g>
<g>
</g>
<g>
</g>
<g>
</g>
</svg>
