<?xml version="1.0" encoding="utf-8"?>
<svg id="Outline" viewBox="0 0 24 24" xmlns="http://www.w3.org/2000/svg">
  <title>78 volume</title>
  <path d="M13.82.2A12.054,12.054,0,0,0,6.266,5H5a5.008,5.008,0,0,0-5,5v4a5.008,5.008,0,0,0,5,5H6.266A12.059,12.059,0,0,0,13.82,23.8a.917.917,0,0,0,.181.017,1,1,0,0,0,1-1V1.186A1,1,0,0,0,13.82.2ZM13,21.535a10.083,10.083,0,0,1-5.371-4.08A1,1,0,0,0,6.792,17H5a3,3,0,0,1-3-3V10A3,3,0,0,1,5,7h1.8a1,1,0,0,0,.837-.453A10.079,10.079,0,0,1,13,2.465Z"/>
  <rect rx="1" ry="1" height="29.618" transform="matrix(0.707107, 0.707107, -0.707107, 0.707107, 7.40887, -14.691778)" x="21.439" y="1.597" width="1.801"/>
</svg>