<svg xmlns="http://www.w3.org/2000/svg" width="24.003" height="22.005" viewBox="0 0 24.003 22.005">
  <g id="그룹_2142" data-name="그룹 2142" transform="translate(-1305 -1732)">
    <path id="fi-br-music" d="M18.5,1h-5A5.506,5.506,0,0,0,8,6.5v6.107A5.5,5.5,0,1,0,10.975,18H11V6.5A2.5,2.5,0,0,1,13.5,4h5A2.5,2.5,0,0,1,21,6.5v6.107A5.5,5.5,0,1,0,23.975,18H24V6.5A5.506,5.506,0,0,0,18.5,1ZM5.5,20A2.5,2.5,0,1,1,8,17.5,2.5,2.5,0,0,1,5.5,20Zm13,0A2.5,2.5,0,1,1,21,17.5,2.5,2.5,0,0,1,18.5,20Z" transform="translate(1305.003 1731)"/>
    <circle id="타원_73" data-name="타원 73" cx="3.5" cy="3.5" r="3.5" transform="translate(1307 1745)"/>
    <circle id="타원_74" data-name="타원 74" cx="3.5" cy="3.5" r="3.5" transform="translate(1307 1745)"/>
    <circle id="타원_75" data-name="타원 75" cx="3.5" cy="3.5" r="3.5" transform="translate(1320 1745)"/>
  </g>
</svg>
