<svg id="Layer_1" data-name="Layer 1" xmlns="http://www.w3.org/2000/svg" viewBox="0 0 24 24"><path d="M18.5,21H5.5A5.506,5.506,0,0,1,0,15.5v-7A5.506,5.506,0,0,1,5.5,3h13A5.506,5.506,0,0,1,24,8.5v7A5.506,5.506,0,0,1,18.5,21ZM5.5,6A2.5,2.5,0,0,0,3,8.5v7A2.5,2.5,0,0,0,5.5,18h13A2.5,2.5,0,0,0,21,15.5v-7A2.5,2.5,0,0,0,18.5,6Zm0,1A1.5,1.5,0,1,0,7,8.5,1.5,1.5,0,0,0,5.5,7ZM17,8.5A1.5,1.5,0,1,0,18.5,7,1.5,1.5,0,0,0,17,8.5ZM6.561,14.439a1.5,1.5,0,1,0,0,2.122A1.5,1.5,0,0,0,6.561,14.439ZM17,15.5A1.5,1.5,0,1,0,18.5,14,1.5,1.5,0,0,0,17,15.5ZM8.5,12A3.5,3.5,0,1,1,12,15.5,3.5,3.5,0,0,1,8.5,12Z"/></svg>