<svg id="Layer_1" data-name="Layer 1" xmlns="http://www.w3.org/2000/svg" viewBox="0 0 24 24"><path d="M22.024,1.976C18.5-1.553,9.377-.177,4.6,4.6S-1.551,18.5,1.976,22.024A8.323,8.323,0,0,0,7.913,24,17.032,17.032,0,0,0,19.4,19.4C24.177,14.621,25.551,5.5,22.024,1.976Zm-4.746,15.3a14.038,14.038,0,0,1-7.845,3.609L3.114,14.568A14.036,14.036,0,0,1,6.722,6.722a14.036,14.036,0,0,1,7.846-3.608l6.318,6.318A14.036,14.036,0,0,1,17.278,17.278Zm.283-5.717a1.5,1.5,0,0,1-2.122,0L15,11.121,14.121,12l.44.439a1.5,1.5,0,0,1-2.122,2.122L12,14.121,11.121,15l.44.439a1.5,1.5,0,0,1-2.122,2.122l-3-3a1.5,1.5,0,0,1,2.122-2.122l.439.44L9.879,12l-.44-.439a1.5,1.5,0,0,1,2.122-2.122l.439.44L12.879,9l-.44-.439a1.5,1.5,0,0,1,2.122-2.122l3,3A1.5,1.5,0,0,1,17.561,11.561Z"/></svg>