<svg id="Layer_1" data-name="Layer 1" xmlns="http://www.w3.org/2000/svg" viewBox="0 0 24 24"><path d="M22.327,18.422C23.055,19.456,24,20.651,24,21.5a2.5,2.5,0,0,1-5,0c0-.775.961-2.008,1.692-3.069A1,1,0,0,1,22.327,18.422Zm-.875-3.853-7.82,7.82a5.508,5.508,0,0,1-7.778,0L1.611,18.146a5.5,5.5,0,0,1,0-7.778L5.429,6.55,2.439,3.561A1.5,1.5,0,0,1,4.561,1.439L7.55,4.429,9.431,2.548A1.5,1.5,0,0,1,11.561.439l12,12a1.5,1.5,0,0,1-2.109,2.13ZM19.329,12.45,11.55,4.671,9.671,6.55l3.89,3.889a1.5,1.5,0,0,1-2.122,2.122L7.55,8.671,3.732,12.489a2.5,2.5,0,0,0,0,3.536l4.243,4.243a2.5,2.5,0,0,0,3.536,0Z"/></svg>