<svg id="Layer_1" data-name="Layer 1" xmlns="http://www.w3.org/2000/svg" viewBox="0 0 24 24"><path d="M20,11a4,4,0,0,0-4,4v5a4,4,0,0,0,8,0V15A4,4,0,0,0,20,11Zm1,9a1,1,0,0,1-2,0V15a1,1,0,0,1,2,0Z"/><path d="M22.293,2.707,20.97,4.03A12,12,0,0,0,1.5,17.811a1.5,1.5,0,1,0,2.624-1.455A8.992,8.992,0,0,1,18.834,6.166L17.707,7.293A1,1,0,0,0,18.414,9H23a1,1,0,0,0,1-1V3.414A1,1,0,0,0,22.293,2.707Z"/><path d="M12.574,11.114a1.5,1.5,0,0,0-1.635.325l-3.75,3.75a1.5,1.5,0,0,0,2.122,2.122l1.189-1.19V22.5a1.5,1.5,0,0,0,3,0v-10A1.5,1.5,0,0,0,12.574,11.114Z"/></svg>