<svg id="Bold" xmlns="http://www.w3.org/2000/svg" viewBox="0 0 24 24"><title>142 checkbox</title><path d="M18.5,24H5.5A5.506,5.506,0,0,1,0,18.5V5.5A5.506,5.506,0,0,1,5.5,0h13A5.506,5.506,0,0,1,24,5.5v13A5.506,5.506,0,0,1,18.5,24ZM5.5,3A2.5,2.5,0,0,0,3,5.5v13A2.5,2.5,0,0,0,5.5,21h13A2.5,2.5,0,0,0,21,18.5V5.5A2.5,2.5,0,0,0,18.5,3Z"/><path d="M9.667,17.787a2.362,2.362,0,0,1-1.68-.7L5,14.105a1.5,1.5,0,0,1,0-2.122H5a1.5,1.5,0,0,1,2.121,0l2.546,2.545,7.212-7.212a1.5,1.5,0,0,1,2.121,0h0a1.5,1.5,0,0,1,0,2.122l-7.654,7.654A2.36,2.36,0,0,1,9.667,17.787Z"/></svg>