<svg id="Layer_1" data-name="Layer 1" xmlns="http://www.w3.org/2000/svg" viewBox="0 0 24 24"><path d="M22.8,5.983,21.467,4.654l1.094-1.093a1.5,1.5,0,0,0-2.122-2.122L19.346,2.533,18.017,1.2A4.11,4.11,0,1,0,12.2,7.017l1.329,1.329L8.346,13.533,7.017,12.2A4.11,4.11,0,1,0,1.2,18.017l1.329,1.329L1.439,20.439a1.5,1.5,0,0,0,2.122,2.122l1.093-1.094L5.983,22.8A4.11,4.11,0,1,0,11.8,16.983l-1.329-1.328,5.188-5.188L16.983,11.8A4.11,4.11,0,1,0,22.8,5.983ZM9.675,20.674h0a1.139,1.139,0,0,1-1.571,0L3.325,15.9A1.111,1.111,0,0,1,4.9,14.325L9.675,19.1a1.111,1.111,0,0,1,0,1.57Zm11-11h0a1.139,1.139,0,0,1-1.571,0L14.325,4.9A1.111,1.111,0,0,1,15.9,3.325L20.675,8.1a1.111,1.111,0,0,1,0,1.57Z"/></svg>