<svg id="Bold" xmlns="http://www.w3.org/2000/svg" viewBox="0 0 24 24"><title>62 attached</title><path d="M10.219,23.932A9.2,9.2,0,0,1,3.775,21.31,9.508,9.508,0,0,1,3.933,7.964l5.79-5.789a6.8,6.8,0,0,1,8.9-.742,6.654,6.654,0,0,1,.659,9.977l-6.059,6.059a4.329,4.329,0,0,1-2.565,1.3A4.058,4.058,0,0,1,7.147,17.39a4.323,4.323,0,0,1,.334-5.7L12.1,7.075a1.5,1.5,0,0,1,2.121,0h0a1.5,1.5,0,0,1,0,2.121L9.46,13.958a1.073,1.073,0,0,0,1.518,1.517l6.114-6.113a3.713,3.713,0,0,0,.557-4.635,3.653,3.653,0,0,0-5.641-.6L5.974,10.166A6.363,6.363,0,0,0,5.28,18.5a6.227,6.227,0,0,0,9.337.616l4.762-4.761a1.5,1.5,0,0,1,2.121,0h0a1.5,1.5,0,0,1,0,2.121l-4.762,4.761A9.188,9.188,0,0,1,10.219,23.932Z"/></svg>