<svg id="Layer_1" data-name="Layer 1" xmlns="http://www.w3.org/2000/svg" viewBox="0 0 24 24"><path d="M19.78,3.238a10.967,10.967,0,0,0-15.561,0,11.1,11.1,0,0,0,.043,15.656L8,22.36a5.707,5.707,0,0,0,7.977.03l3.807-3.537A11.093,11.093,0,0,0,19.78,3.238ZM17.7,16.7l-3.8,3.525a2.754,2.754,0,0,1-3.832-.03L6.346,16.737a8.084,8.084,0,0,1,0-11.383,7.966,7.966,0,0,1,11.307,0A8.074,8.074,0,0,1,17.7,16.7Zm-2.135-2.135a1.5,1.5,0,0,1-2.122,0l-2.5-2.5A1.5,1.5,0,0,1,10.5,11V7.5a1.5,1.5,0,0,1,3,0v2.879l2.061,2.06A1.5,1.5,0,0,1,15.561,14.561Z"/></svg>