<svg id="Layer_1" data-name="Layer 1" xmlns="http://www.w3.org/2000/svg" viewBox="0 0 24 24"><path d="M12,10a21.7,21.7,0,0,0-3,.211V8.94l4.609-1.908c.035-.014.07-.03.1-.047a2.5,2.5,0,0,0,.34-4.256C14,2.693,9.618.265,9.618.265A2.5,2.5,0,0,0,6,2.5v8.383C2.361,12.059,0,14.3,0,17c0,3.991,5.159,7,12,7s12-3.009,12-7S18.841,10,12,10Zm0,11c-5.151,0-9-2.112-9-4,0-1.025,1.14-2.113,3-2.9v2.4a1.5,1.5,0,0,0,3,0V13.254A17.713,17.713,0,0,1,12,13c5.151,0,9,2.112,9,4S17.151,21,12,21Zm5-4a2,2,0,1,1-2-2A2,2,0,0,1,17,17Z"/></svg>