<svg id="Layer_1" data-name="Layer 1" xmlns="http://www.w3.org/2000/svg" viewBox="0 0 24 24"><path d="M23.148,5.7,20.28,1.827A4.374,4.374,0,0,0,16.729,0H7.271A4.355,4.355,0,0,0,3.74,1.8L.8,5.721a4.346,4.346,0,0,0,.118,5.2L9.329,22.71A3.391,3.391,0,0,0,12,24h0a3.423,3.423,0,0,0,2.715-1.35l8.3-11.609A4.365,4.365,0,0,0,23.148,5.7ZM3.227,7.487,6.161,3.571A1.367,1.367,0,0,1,7.271,3H9.662L8.182,8.182l.085.318h7.466l.085-.318L14.338,3h2.391a1.381,1.381,0,0,1,1.125.592l2.879,3.89a1.318,1.318,0,0,1,.22,1.018h-5.22l-3.22,12.075-.193.271A.4.4,0,0,1,12,21a.39.39,0,0,1-.274-.094l-.241-.337L8.267,8.5H3.041A1.306,1.306,0,0,1,3.227,7.487Z"/></svg>