<svg id="Bold" xmlns="http://www.w3.org/2000/svg" viewBox="0 0 24 24"><title>56 inbox</title><rect x="2" y="6" width="20" height="3" rx="1.5"/><rect x="2" y="1" width="20" height="3" rx="1.5"/><path d="M18.5,24H5.5A5.506,5.506,0,0,1,0,18.5v-4A3.5,3.5,0,0,1,3.5,11H7a1.5,1.5,0,0,1,1.5,1.5A2.5,2.5,0,0,0,11,15h2a2.5,2.5,0,0,0,2.5-2.5A1.5,1.5,0,0,1,17,11h3.5A3.5,3.5,0,0,1,24,14.5v4A5.506,5.506,0,0,1,18.5,24ZM3.5,14a.5.5,0,0,0-.5.5v4A2.5,2.5,0,0,0,5.5,21h13A2.5,2.5,0,0,0,21,18.5v-4a.5.5,0,0,0-.5-.5H18.292A5.509,5.509,0,0,1,13,18H11a5.509,5.509,0,0,1-5.292-4Z"/></svg>