<svg id="Layer_1" data-name="Layer 1" xmlns="http://www.w3.org/2000/svg" viewBox="0 0 24 24"><path d="M18.5,0H5.5A5.507,5.507,0,0,0,0,5.5v5A7.508,7.508,0,0,0,7.5,18H8v2a4,4,0,0,0,8,0V18h.5A7.508,7.508,0,0,0,24,10.5v-5A5.507,5.507,0,0,0,18.5,0ZM5.5,3H6v.5a1.5,1.5,0,0,0,3,0V3h2V5.5a1.5,1.5,0,0,0,3,0V3h2V7.5a1.5,1.5,0,0,0,3,0V3.051A2.5,2.5,0,0,1,21,5.5V10H3V5.5A2.5,2.5,0,0,1,5.5,3Zm11,12h-2A1.5,1.5,0,0,0,13,16.5V20a1,1,0,0,1-2,0V16.5A1.5,1.5,0,0,0,9.5,15h-2a4.5,4.5,0,0,1-3.738-2H20.238A4.5,4.5,0,0,1,16.5,15Z"/></svg>