<svg id="Layer_1" data-name="Layer 1" xmlns="http://www.w3.org/2000/svg" viewBox="0 0 24 24"><path d="M15,7.5A1.5,1.5,0,1,1,16.5,9,1.5,1.5,0,0,1,15,7.5ZM13.5,12A1.5,1.5,0,1,0,12,10.5,1.5,1.5,0,0,0,13.5,12Zm-3,3A1.5,1.5,0,1,0,9,13.5,1.5,1.5,0,0,0,10.5,15ZM23.841,3.553l-.075.209c-1.654,4.589-3.234,8.925-6.875,12.691a11.063,11.063,0,0,1-3.3,6.787A2.757,2.757,0,0,1,11.7,24,2.7,2.7,0,0,1,9,21.3V19.669a5.259,5.259,0,0,1-1.607-.941L5.561,20.561a1.5,1.5,0,0,1-2.122-2.122l1.834-1.834A5.282,5.282,0,0,1,4.128,14H2.7A2.7,2.7,0,0,1,0,11.3,2.757,2.757,0,0,1,.76,9.41,11.288,11.288,0,0,1,8.743,6.018c3.476-2.893,7.386-4.3,11.5-5.784l.208-.075h0a2.652,2.652,0,0,1,3.394,3.394Zm-3.073-.321C16.412,4.805,12.635,6.24,9.4,9.472a26.059,26.059,0,0,0-1.921,2.449A2.32,2.32,0,0,0,7.74,14.9L9.164,16.32a2.32,2.32,0,0,0,2.976.258A17.546,17.546,0,0,0,14.528,14.6C17.76,11.365,19.2,7.588,20.768,3.232Z"/></svg>