<svg id="Layer_1" data-name="Layer 1" xmlns="http://www.w3.org/2000/svg" viewBox="0 0 24 24"><path d="M18.5,2H16.475A5.917,5.917,0,0,0,10.814.115,5.762,5.762,0,0,0,7.6,2H5C2.1,2,0,4.313,0,7.5v11A5.507,5.507,0,0,0,5.5,24h13A5.507,5.507,0,0,0,24,18.5V7.5A5.507,5.507,0,0,0,18.5,2ZM21,18.5A2.5,2.5,0,0,1,18.5,21H5.5A2.5,2.5,0,0,1,3,18.5V7.5C3,7.083,3.1,5,5,5H6.135a6.49,6.49,0,0,0-.122,1.214,2.784,2.784,0,0,0,2.7,2.778l2.536-4.323a1.5,1.5,0,1,1,2.5,1.664L12.316,9h2.912a2.7,2.7,0,0,0,2.785-3c0,.016-.037-.663-.092-1H18.5A2.5,2.5,0,0,1,21,7.5Z"/></svg>