<svg id="Bold" xmlns="http://www.w3.org/2000/svg" viewBox="0 0 24 24"><title>189 dowload</title><path d="M8.851,17.7a4.5,4.5,0,0,0,6.364,0l3.212-3.212a1.5,1.5,0,1,0-2.121-2.121l-2.783,2.782L13.5,1.5A1.5,1.5,0,0,0,12,0h0a1.5,1.5,0,0,0-1.5,1.5l.021,13.627L7.76,12.366a1.5,1.5,0,0,0-2.121,2.121Z"/><path d="M22.5,14.5A1.5,1.5,0,0,0,21,16v4.591a.41.41,0,0,1-.409.409H3.409A.41.41,0,0,1,3,20.591V16a1.5,1.5,0,0,0-3,0v4.591A3.413,3.413,0,0,0,3.409,24H20.591A3.413,3.413,0,0,0,24,20.591V16A1.5,1.5,0,0,0,22.5,14.5Z"/></svg>