<svg id="Layer_1" data-name="Layer 1" xmlns="http://www.w3.org/2000/svg" viewBox="0 0 24 24"><path d="M11.671,24A3.488,3.488,0,0,1,9.2,22.975l-3.39-3.419a1.5,1.5,0,0,1,2.131-2.112l3.385,3.414a.5.5,0,0,0,.7,0l5.414-5.415a1.5,1.5,0,0,1,2.122,2.122l-5.415,5.414A3.488,3.488,0,0,1,11.671,24ZM2.085,18.9A1.536,1.536,0,0,0,3.093,17a2.763,2.763,0,0,1,1.444-3.157,2.482,2.482,0,0,0,1.012-3.355,5.121,5.121,0,0,1-.456-3.3A5.052,5.052,0,0,1,9.308,3.1a5.2,5.2,0,0,1,3.908.989,5.109,5.109,0,0,1,2,3.419,1.5,1.5,0,0,0,1.29,1.288,5.168,5.168,0,0,1,4.472,5.545l0,.053a1.466,1.466,0,0,0,1.385,1.567,1.536,1.536,0,0,0,1.613-1.418,8.162,8.162,0,0,0-6-8.506,8.094,8.094,0,0,0-2.95-4.341A8.188,8.188,0,0,0,8.881.125,8.054,8.054,0,0,0,2.146,6.63a8.108,8.108,0,0,0,.541,4.824,5.759,5.759,0,0,0-2.5,6.293l.047.174a1.447,1.447,0,0,0,1.407,1.044A1.582,1.582,0,0,0,2.085,18.9Z"/></svg>