<svg id="Layer_1" data-name="Layer 1" xmlns="http://www.w3.org/2000/svg" viewBox="0 0 24 24"><path d="M22.511,16.464a1.5,1.5,0,0,1-1.061-.439,7.007,7.007,0,0,0-9.9,0A1.5,1.5,0,1,1,9.429,13.9a10.009,10.009,0,0,1,14.142,0,1.5,1.5,0,0,1-1.06,2.56Zm-2.476,3.1a1.5,1.5,0,0,0,0-2.122,5,5,0,0,0-7.07,0,1.5,1.5,0,0,0,2.121,2.122,2.049,2.049,0,0,1,2.828,0,1.5,1.5,0,0,0,2.121,0ZM16.5,21A1.5,1.5,0,1,0,18,22.5,1.5,1.5,0,0,0,16.5,21Zm-6-.5A1.5,1.5,0,0,0,9,19H5.968a2.925,2.925,0,0,1-2.875-2.038,2.763,2.763,0,0,1,1.444-3.156A2.484,2.484,0,0,0,5.549,10.45a5.118,5.118,0,0,1-.456-3.3A5.052,5.052,0,0,1,9.308,3.057a5.206,5.206,0,0,1,3.909.988,5.12,5.12,0,0,1,2,3.42,1.5,1.5,0,0,0,1.289,1.287,5.152,5.152,0,0,1,2.2.828,1.5,1.5,0,0,0,1.664-2.5A8.248,8.248,0,0,0,17.977,6a8.1,8.1,0,0,0-2.951-4.343A8.186,8.186,0,0,0,8.882.087a8.051,8.051,0,0,0-6.736,6.5,8.1,8.1,0,0,0,.541,4.825,5.764,5.764,0,0,0-2.5,6.3A5.886,5.886,0,0,0,5.968,22H9A1.5,1.5,0,0,0,10.5,20.5Z"/></svg>