<svg id="Layer_1" data-name="Layer 1" xmlns="http://www.w3.org/2000/svg" viewBox="0 0 24 24"><path d="M15.5,13.5H13.31a1.991,1.991,0,0,1-2.81-2.81V7a1.5,1.5,0,0,1,3,0v3.5h2a1.5,1.5,0,0,1,0,3ZM12,0a1.5,1.5,0,0,0,0,3,9.01,9.01,0,0,1,9,9,1.5,1.5,0,0,0,3,0A12.013,12.013,0,0,0,12,0ZM3,12.5A1.5,1.5,0,1,0,1.5,14,1.5,1.5,0,0,0,3,12.5ZM6.74,1.894a1.5,1.5,0,1,0,1.5,1.5A1.5,1.5,0,0,0,6.74,1.894ZM2.913,5.75a1.5,1.5,0,1,0,1.5,1.5A1.5,1.5,0,0,0,2.913,5.75ZM6.74,20.106a1.5,1.5,0,1,0,1.5,1.5A1.5,1.5,0,0,0,6.74,20.106ZM2.913,16.25a1.5,1.5,0,1,0,1.5,1.5A1.5,1.5,0,0,0,2.913,16.25ZM12,21a1.5,1.5,0,1,0,1.5,1.5A1.5,1.5,0,0,0,12,21Zm9.106-5.24a1.5,1.5,0,1,0,1.5,1.5A1.5,1.5,0,0,0,21.106,15.76ZM17.25,19.587a1.5,1.5,0,1,0,1.5,1.5A1.5,1.5,0,0,0,17.25,19.587Z"/></svg>