<svg id="Layer_1" data-name="Layer 1" xmlns="http://www.w3.org/2000/svg" viewBox="0 0 24 24"><path d="M23.992,8.383a4,4,0,0,0-2.05-3.347c-.041-.024-7.186-3.322-7.186-3.322a5.713,5.713,0,0,0-5.512,0S2.1,5.012,2.058,5.036a3.944,3.944,0,0,0,0,6.928C2.1,11.988,5,13.328,5,13.328v4.727a4.654,4.654,0,0,0,3.273,4.438A12.93,12.93,0,0,0,12,23a12.93,12.93,0,0,0,3.727-.507A4.654,4.654,0,0,0,19,18.055V13.328l2-.922V19.5a1.5,1.5,0,0,0,3,0V8.461C24,8.434,23.993,8.409,23.992,8.383ZM16,18.055a1.635,1.635,0,0,1-1.138,1.566,11.045,11.045,0,0,1-5.724,0A1.635,1.635,0,0,1,8,18.055V14.712l1.244.574a5.7,5.7,0,0,0,5.512,0L16,14.712ZM20.485,9.34s-7.129,3.29-7.169,3.314a2.662,2.662,0,0,1-2.632,0c-.04-.024-7.169-3.314-7.169-3.314a.943.943,0,0,1,0-1.68s7.129-3.29,7.169-3.314a2.662,2.662,0,0,1,2.632,0c.04.024,7.169,3.314,7.169,3.314a.943.943,0,0,1,0,1.68Z"/></svg>