<svg id="Layer_1" data-name="Layer 1" xmlns="http://www.w3.org/2000/svg" viewBox="0 0 24 24"><path d="M22,11.351V9.5a3.494,3.494,0,0,0-3.037-3.453A12.693,12.693,0,0,0,17.339.406a.994.994,0,0,0-1.692.15,3.938,3.938,0,0,1-3.685,2.457H10c-3.08,0-4.26,1.7-4.714,3.009A3.5,3.5,0,0,0,2,9.5v1.851A3.5,3.5,0,0,0,0,14.5v4A5.507,5.507,0,0,0,5.5,24h13A5.507,5.507,0,0,0,24,18.5v-4A3.5,3.5,0,0,0,22,11.351ZM5.5,9h13a.5.5,0,0,1,.5.5V11H5V9.5A.5.5,0,0,1,5.5,9ZM21,18.5A2.5,2.5,0,0,1,18.5,21H5.5A2.5,2.5,0,0,1,3,18.5v-4a.5.5,0,0,1,.5-.5h17a.5.5,0,0,1,.5.5Z"/></svg>