<svg id="Bold" xmlns="http://www.w3.org/2000/svg" viewBox="0 0 24 24"><title>59 duplicate</title><path d="M20.521,1.729A5.491,5.491,0,0,0,16.53,0H13.5A5.507,5.507,0,0,0,8.025,5H7.5A5.506,5.506,0,0,0,2,10.5v8A5.506,5.506,0,0,0,7.5,24h4A5.506,5.506,0,0,0,17,18.5v-.525A5.506,5.506,0,0,0,22,12.5V5.47A5.451,5.451,0,0,0,20.521,1.729ZM14,18.5A2.5,2.5,0,0,1,11.5,21h-4A2.5,2.5,0,0,1,5,18.5v-8A2.5,2.5,0,0,1,7.5,8H8v4.5A5.506,5.506,0,0,0,13.5,18H14Zm5-6A2.5,2.5,0,0,1,16.5,15h-3A2.5,2.5,0,0,1,11,12.5v-7A2.5,2.5,0,0,1,13.5,3H16V4a2,2,0,0,0,2,2h1Z"/></svg>