<svg id="Layer_1" data-name="Layer 1" xmlns="http://www.w3.org/2000/svg" viewBox="0 0 24 24"><path d="M21.621,19.5l1.94-1.939a1.5,1.5,0,0,0-2.122-2.122L19.5,17.379l-1.939-1.94a1.5,1.5,0,0,0-2.122,2.122l1.94,1.939-1.94,1.939a1.5,1.5,0,0,0,2.122,2.122l1.939-1.94,1.939,1.94a1.5,1.5,0,0,0,2.122-2.122Z"/><path d="M11.57,20.99a9,9,0,1,1,9.42-9.42,1.5,1.5,0,0,0,3-.14A12,12,0,1,0,11.43,23.986l.071,0a1.5,1.5,0,0,0,.069-3Z"/><path d="M12,6a1.5,1.5,0,0,0-1.5,1.5v3.555l-2.4,1.5a1.5,1.5,0,0,0-.475,2.068h0a1.5,1.5,0,0,0,2.068.475l2.869-1.8a2,2,0,0,0,.938-1.7V7.5A1.5,1.5,0,0,0,12,6Z"/></svg>