<svg id="Layer_1" data-name="Layer 1" xmlns="http://www.w3.org/2000/svg" viewBox="0 0 24 24"><path d="M9.5,8A1.5,1.5,0,1,1,8,9.5,1.5,1.5,0,0,1,9.5,8Zm11-1a3.5,3.5,0,0,0-.086,6.991c-1.25,3.585-4.446,6.2-8.845,7a.451.451,0,0,1-.382-.105.51.51,0,0,1-.187-.4V18.871a9.387,9.387,0,0,0,5.392-2.839,1.5,1.5,0,0,0-2.179-2.063A6.431,6.431,0,0,1,9.5,16,6.5,6.5,0,1,1,14.781,5.719a1.5,1.5,0,1,0,2.438-1.748A9.5,9.5,0,1,0,8,18.87v1.62a3.508,3.508,0,0,0,1.265,2.7,3.463,3.463,0,0,0,2.222.81,3.5,3.5,0,0,0,.618-.056C19.22,22.652,24,17.25,24,10.5A3.525,3.525,0,0,0,20.5,7Z"/></svg>