<svg id="Layer_1" data-name="Layer 1" xmlns="http://www.w3.org/2000/svg" viewBox="0 0 24 24"><path d="M9.5,24h-8a1.5,1.5,0,0,1,0-3h8a1.5,1.5,0,0,1,0,3Z"/><path d="M7.5,19h-6a1.5,1.5,0,0,1,0-3h6a1.5,1.5,0,0,1,0,3Z"/><path d="M5.5,14h-4a1.5,1.5,0,0,1,0-3h4a1.5,1.5,0,0,1,0,3Z"/><path d="M14.5,23.722a1.5,1.5,0,0,1-.354-2.958A9.022,9.022,0,1,0,3.843,8.142,1.5,1.5,0,0,1,1.132,6.858,12.023,12.023,0,1,1,14.855,23.679,1.513,1.513,0,0,1,14.5,23.722Z"/><path d="M12.5,6h0A1.5,1.5,0,0,0,11,7.5v4.293a2,2,0,0,0,.586,1.414L13.379,15A1.5,1.5,0,0,0,15.5,12.879l-1.5-1.5V7.5A1.5,1.5,0,0,0,12.5,6Z"/></svg>