<svg id="Bold" xmlns="http://www.w3.org/2000/svg" viewBox="0 0 24 24"><title>76 sort collection</title><path d="M5.5,0A5.5,5.5,0,1,0,11,5.5,5.506,5.506,0,0,0,5.5,0Zm0,8A2.5,2.5,0,1,1,8,5.5,2.5,2.5,0,0,1,5.5,8Z"/><path d="M5.5,13A5.5,5.5,0,1,0,11,18.5,5.506,5.506,0,0,0,5.5,13Zm0,8A2.5,2.5,0,1,1,8,18.5,2.5,2.5,0,0,1,5.5,21Z"/><path d="M22.586,18.414H20.5V5.586h2.086a1,1,0,0,0,.707-1.707L19.707.293a1,1,0,0,0-1.414,0L14.707,3.879a1,1,0,0,0,.707,1.707H17.5V18.414H15.414a1,1,0,0,0-.707,1.707l3.586,3.586a1,1,0,0,0,1.414,0l3.586-3.586A1,1,0,0,0,22.586,18.414Z"/></svg>