<svg id="Layer_1" data-name="Layer 1" xmlns="http://www.w3.org/2000/svg" viewBox="0 0 24 24"><path d="M8.5,0h-4A4.505,4.505,0,0,0,0,4.5v1A4.505,4.505,0,0,0,4.5,10H5v1H4.5a1.5,1.5,0,0,0,0,3h4a1.5,1.5,0,0,0,0-3H8V10h.5A4.505,4.505,0,0,0,13,5.5v-1A4.505,4.505,0,0,0,8.5,0ZM10,5.5A1.5,1.5,0,0,1,8.5,7h-4A1.5,1.5,0,0,1,3,5.5v-1A1.5,1.5,0,0,1,4.5,3h4A1.5,1.5,0,0,1,10,4.5Zm5-1A1.5,1.5,0,0,1,16.5,3h1A3.5,3.5,0,0,1,21,6.5v1a1.5,1.5,0,0,1-3,0v-1a.5.5,0,0,0-.5-.5h-1A1.5,1.5,0,0,1,15,4.5Zm-2,16A1.5,1.5,0,0,1,11.5,22h-3A3.5,3.5,0,0,1,5,18.5v-1a1.5,1.5,0,0,1,3,0v1a.5.5,0,0,0,.5.5h3A1.5,1.5,0,0,1,13,20.5ZM21,11H18a3,3,0,0,0-3,3v7a3,3,0,0,0,3,3h3a3,3,0,0,0,3-3V14A3,3,0,0,0,21,11ZM19.5,22A1.5,1.5,0,1,1,21,20.5,1.5,1.5,0,0,1,19.5,22Z"/></svg>