<svg id="Layer_1" data-name="Layer 1" xmlns="http://www.w3.org/2000/svg" viewBox="0 0 24 24"><path d="M19.561,7.439a1.5,1.5,0,0,1,0,2.122l-3,3a1.5,1.5,0,0,1-2.122-2.122l.44-.439L14,9.121l-.439.44a1.5,1.5,0,0,1-2.122-2.122l3-3a1.5,1.5,0,0,1,2.122,2.122L16.121,7,17,7.879l.439-.44A1.5,1.5,0,0,1,19.561,7.439Zm-9.122,7-.439.44L9.121,14l.44-.439a1.5,1.5,0,0,0-2.122-2.122l-3,3a1.5,1.5,0,0,0,2.122,2.122L7,16.121,7.879,17l-.44.439a1.5,1.5,0,0,0,2.122,2.122l3-3a1.5,1.5,0,0,0-2.122-2.122ZM24,7.891a7.838,7.838,0,0,1-2.312,5.579L13.47,21.688A7.89,7.89,0,1,1,2.312,10.53L10.53,2.312A7.891,7.891,0,0,1,24,7.891Zm-3,0a4.89,4.89,0,0,0-8.349-3.458L4.433,12.651a4.89,4.89,0,1,0,6.916,6.916l8.218-8.218A4.86,4.86,0,0,0,21,7.891Z"/></svg>