<svg id="Layer_1" data-name="Layer 1" xmlns="http://www.w3.org/2000/svg" viewBox="0 0 24 24"><path d="M19,2.607V1.5a1.5,1.5,0,0,0-3,0V2H13.5V1.5a1.5,1.5,0,0,0-3,0V2H8V1.5a1.5,1.5,0,0,0-3,0V2.607A5.5,5.5,0,0,0,2,7.5v11A5.506,5.506,0,0,0,7.5,24h9A5.507,5.507,0,0,0,22,18.5V7.5A5.5,5.5,0,0,0,19,2.607ZM19,18.5A2.5,2.5,0,0,1,16.5,21h-9A2.5,2.5,0,0,1,5,18.5V7.5A2.5,2.5,0,0,1,7.5,5h9A2.5,2.5,0,0,1,19,7.5Zm-2-10A1.5,1.5,0,0,1,15.5,10h-7a1.5,1.5,0,0,1,0-3h7A1.5,1.5,0,0,1,17,8.5Zm-3.5,5A1.5,1.5,0,0,1,12,15H8.5a1.5,1.5,0,0,1,0-3H12A1.5,1.5,0,0,1,13.5,13.5Z"/></svg>