<svg id="Bold" xmlns="http://www.w3.org/2000/svg" viewBox="0 0 24 24"><title>51 floppy disk</title><path d="M22.682,4.333,19.667,1.319A4.467,4.467,0,0,0,16.485,0H4.5A4.505,4.505,0,0,0,0,4.5v15A4.505,4.505,0,0,0,4.5,24h15A4.505,4.505,0,0,0,24,19.5V7.515A4.47,4.47,0,0,0,22.682,4.333ZM21,19.5A1.5,1.5,0,0,1,19.5,21H4.5A1.5,1.5,0,0,1,3,19.5V4.5A1.5,1.5,0,0,1,4.5,3H6a4,4,0,0,0,4,4h3a4,4,0,0,0,3.991-3.907,1.48,1.48,0,0,1,.554.346l3.016,3.016A1.49,1.49,0,0,1,21,7.515Z"/><circle cx="12" cy="14" r="4"/></svg>