<svg id="Layer_1" data-name="Layer 1" xmlns="http://www.w3.org/2000/svg" viewBox="0 0 24 24"><path d="M16.5,0h-9A5.506,5.506,0,0,0,2,5.5v13A5.506,5.506,0,0,0,7.5,24h9A5.506,5.506,0,0,0,22,18.5V5.5A5.506,5.506,0,0,0,16.5,0ZM19,18.5A2.5,2.5,0,0,1,16.5,21h-3v-.5a1.5,1.5,0,0,0-3,0V21h-3A2.5,2.5,0,0,1,5,18.5V5.5A2.5,2.5,0,0,1,7.5,3h9A2.5,2.5,0,0,1,19,5.5Zm-3-2A1.5,1.5,0,0,1,14.5,18h-5a1.5,1.5,0,0,1,0-3h5A1.5,1.5,0,0,1,16,16.5ZM12,4A4,4,0,0,0,8,8v3.5a1.5,1.5,0,0,0,2.908.5h2.184A1.5,1.5,0,0,0,16,11.5V8A4,4,0,0,0,12,4Zm0,3a1,1,0,0,1,1,1V9H11V8A1,1,0,0,1,12,7Z"/></svg>