<svg id="Layer_1" data-name="Layer 1" xmlns="http://www.w3.org/2000/svg" viewBox="0 0 24 24"><path d="M23.9,11.394A12,12,0,0,0,0,12.95a11.8,11.8,0,0,0,3.761,8.678A5.176,5.176,0,0,0,7.336,23h9.322a5.317,5.317,0,0,0,3.728-1.512A11.866,11.866,0,0,0,23.9,11.394Zm-5.607,7.944A2.333,2.333,0,0,1,16.658,20H7.336a2.225,2.225,0,0,1-1.52-.557A8.831,8.831,0,0,1,3,12.95,8.977,8.977,0,0,1,11.988,4a9.483,9.483,0,0,1,1.06.06,9.008,9.008,0,0,1,7.877,7.713A8.9,8.9,0,0,1,18.294,19.338ZM9.053,15.485a1.5,1.5,0,0,1-2.209,2.03A6.97,6.97,0,0,1,5,12.786a6.818,6.818,0,0,1,6.377-6.761,1.5,1.5,0,0,1,.246,2.991A3.79,3.79,0,0,0,8,12.786,3.979,3.979,0,0,0,9.053,15.485Zm9.888-1.792a6.94,6.94,0,0,1-1.785,3.823,1.5,1.5,0,0,1-2.209-2.032,3.951,3.951,0,0,0,1.02-2.177,1.5,1.5,0,0,1,2.974.386Zm-4.955-.558a2,2,0,1,1-2.121-2.121l2.574-2.575a1.5,1.5,0,0,1,2.122,2.122Z"/></svg>