<svg id="Layer_1" data-name="Layer 1" xmlns="http://www.w3.org/2000/svg" viewBox="0 0 24 24"><path d="M23.976,15.5a7.626,7.626,0,0,1-.691,2.636,1.5,1.5,0,1,1-2.717-1.272,4.619,4.619,0,0,0,.417-1.6A5.163,5.163,0,0,0,16.51,9.752a1.5,1.5,0,0,1-1.289-1.287,5.12,5.12,0,0,0-2-3.42,5.2,5.2,0,0,0-3.908-.988A5.052,5.052,0,0,0,5.094,8.15a5.118,5.118,0,0,0,.456,3.3,2.484,2.484,0,0,1-1.012,3.356,2.763,2.763,0,0,0-1.444,3.156A2.925,2.925,0,0,0,5.969,20H8.5a1.5,1.5,0,0,1,0,3H5.969A5.886,5.886,0,0,1,.191,18.719a5.764,5.764,0,0,1,2.5-6.3A8.121,8.121,0,0,1,15.026,2.653a8.214,8.214,0,0,1,2.948,4.34A8.16,8.16,0,0,1,23.976,15.5ZM18.563,19H17V14.5a1.5,1.5,0,0,0-3,0V19H12.437a.968.968,0,0,0-.685,1.653l3.063,3.063a.967.967,0,0,0,1.37,0l3.063-3.063A.968.968,0,0,0,18.563,19Z"/></svg>