<svg id="Layer_1" data-name="Layer 1" xmlns="http://www.w3.org/2000/svg" viewBox="0 0 24 24"><path d="M15,15.625a4.25,4.25,0,0,0-8.5,0,1.5,1.5,0,0,0,3,0,1.25,1.25,0,0,1,2.5,0c0,.625-1.192,1.519-2.15,2.237C8.28,19.04,6.5,20.375,6.5,22.5A1.5,1.5,0,0,0,8,24h5.5a1.5,1.5,0,0,0,0-3H10.7c.31-.254.645-.5.955-.737C13.22,19.085,15,17.75,15,15.625Z"/><path d="M22.5,11A1.5,1.5,0,0,0,21,12.5V17h-.75A1.252,1.252,0,0,1,19,15.75V12.5a1.5,1.5,0,0,0-3,0v3.25A4.255,4.255,0,0,0,20.25,20H21v2.5a1.5,1.5,0,0,0,3,0v-10A1.5,1.5,0,0,0,22.5,11Z"/><path d="M22.293,2.707,20.97,4.03A12,12,0,0,0,1.5,17.811a1.5,1.5,0,1,0,2.624-1.455A8.992,8.992,0,0,1,18.834,6.166L17.707,7.293A1,1,0,0,0,18.414,9H23a1,1,0,0,0,1-1V3.414A1,1,0,0,0,22.293,2.707Z"/></svg>