<svg id="Layer_1" data-name="Layer 1" xmlns="http://www.w3.org/2000/svg" viewBox="0 0 24 24"><path d="M23.009,11.951,21.19,7.86A6.507,6.507,0,0,0,15.25,4h-.458l-.549-2.642a1.793,1.793,0,0,0-3.479,0L10.21,4H5.5A5.506,5.506,0,0,0,0,9.5v8a3.5,3.5,0,0,0,3,3.45c0,.017,0,.033,0,.05a3,3,0,0,0,6,0h5a3,3,0,0,0,6,0h.5A3.5,3.5,0,0,0,24,17.5v-.878A11.424,11.424,0,0,0,23.009,11.951ZM21,17.5a.5.5,0,0,1-.5.5H3.5a.5.5,0,0,1-.5-.5v-8A2.5,2.5,0,0,1,5.5,7h9.75a3.459,3.459,0,0,1,.75.091V12a2,2,0,0,0,2,2h2.586A8.439,8.439,0,0,1,21,16.622Zm-8-5A1.5,1.5,0,0,1,11.5,14H11v.5a1.5,1.5,0,0,1-3,0V14H7.5a1.5,1.5,0,0,1,0-3H8v-.5a1.5,1.5,0,0,1,3,0V11h.5A1.5,1.5,0,0,1,13,12.5Z"/></svg>