<svg id="Bold" xmlns="http://www.w3.org/2000/svg" viewBox="0 0 24 24"><title>21 opacity</title><path d="M13.24.063a12.168,12.168,0,0,0-3.059.074A1.433,1.433,0,0,0,9.047,1.963l.036.122a1.456,1.456,0,0,0,1.63,1.006A9.185,9.185,0,0,1,12,3V21a9.185,9.185,0,0,1-1.287-.091,1.456,1.456,0,0,0-1.63,1.006l-.037.126a1.427,1.427,0,0,0,1.121,1.82A12.176,12.176,0,0,0,12,24,12,12,0,0,0,13.24.063Z"/><path d="M3.006,17.077l-.119.068a1.428,1.428,0,0,0-.461,2.09,12.128,12.128,0,0,0,2.063,2.124,1.429,1.429,0,0,0,2.1-.4l.07-.117a1.434,1.434,0,0,0-.338-1.858A9.007,9.007,0,0,1,4.853,17.47,1.434,1.434,0,0,0,3.006,17.077Z"/><path d="M6.659,3.16l-.07-.117a1.429,1.429,0,0,0-2.1-.4A12.087,12.087,0,0,0,2.424,4.768a1.428,1.428,0,0,0,.461,2.09L3,6.925a1.434,1.434,0,0,0,1.848-.393,9.078,9.078,0,0,1,1.47-1.514A1.433,1.433,0,0,0,6.659,3.16Z"/><path d="M3,12a9.262,9.262,0,0,1,.061-1.055A1.433,1.433,0,0,0,2.009,9.377l-.133-.035a1.446,1.446,0,0,0-1.794,1.25,12.164,12.164,0,0,0,0,2.82,1.446,1.446,0,0,0,1.8,1.249l.133-.035a1.432,1.432,0,0,0,1.051-1.567A9.12,9.12,0,0,1,3,12Z"/></svg>