<svg id="Bold" xmlns="http://www.w3.org/2000/svg" viewBox="0 0 24 24"><title>134 clean</title><path d="M23.566,1.794a1.5,1.5,0,0,0-2.121,0L16.681,6.558a5.509,5.509,0,0,0-6.876-.391A15.176,15.176,0,0,1,5.743,8.322l-1.789.524h0A5.5,5.5,0,0,0,.458,16.321,12.5,12.5,0,0,0,6.1,22.638a14.352,14.352,0,0,0,6.455,1.356h.063A3.467,3.467,0,0,0,14.7,23.3a15.027,15.027,0,0,0,6.01-9.469,5.551,5.551,0,0,0-1.578-4.912l-.288-.28,4.725-4.726A1.5,1.5,0,0,0,23.566,1.794ZM12.886,20.909a.457.457,0,0,1-.283.085,15.542,15.542,0,0,1-3.128-.319,11.559,11.559,0,0,0,3.388-3.241l.494-.727a1.5,1.5,0,1,0-2.48-1.687l-.494.725A8.573,8.573,0,0,1,7.16,18.562l-1.038.521a9.087,9.087,0,0,1-1.554-1.618,11.631,11.631,0,0,0,3.725-2.44,1.5,1.5,0,0,0-2.1-2.142,8.618,8.618,0,0,1-3.085,1.925A2.479,2.479,0,0,1,4.8,11.725L6.587,11.2A17.177,17.177,0,0,0,10.91,9.043l6.328,6.167A12.541,12.541,0,0,1,12.886,20.909Z"/></svg>