<svg id="Layer_1" data-name="Layer 1" xmlns="http://www.w3.org/2000/svg" viewBox="0 0 24 24"><path d="M13,0C6.935,0,2,4.037,2,9a7.383,7.383,0,0,0,.094,1.121c-.018.017-.039.028-.057.046h0a3.991,3.991,0,0,0-.49,5.038A6.3,6.3,0,0,0,0,19.5,4.373,4.373,0,0,0,4.5,24a1.49,1.49,0,0,0,1.489-1.481A1.508,1.508,0,0,0,4.518,21,1.378,1.378,0,0,1,3,19.5a3.392,3.392,0,0,1,1.222-2.75,17.347,17.347,0,0,0,3.25.263c.168,0,.325-.01.492-.013A13.092,13.092,0,0,0,13,18c6.065,0,11-4.037,11-9S19.065,0,13,0Zm0,15a10.312,10.312,0,0,1-2.735-.377,18.684,18.684,0,0,0-2.59-4.455A3.962,3.962,0,0,0,5,9.016V9c0-3.309,3.589-6,8-6s8,2.691,8,6S17.411,15,13,15Z"/></svg>