<svg id="Layer_1" data-name="Layer 1" xmlns="http://www.w3.org/2000/svg" viewBox="0 0 24 24"><path d="M23.268.733A2.489,2.489,0,0,0,20.961.06,15.964,15.964,0,0,0,14.14,4.2L5.922,12.422a15.07,15.07,0,0,0-4.21-1.407,1.5,1.5,0,0,0-.429,2.969A12.287,12.287,0,0,1,5.95,15.928L3,18.879l-.439-.44A1.5,1.5,0,0,0,.439,20.561l3,3a1.5,1.5,0,0,0,2.122-2.122L5.121,21l2.95-2.951a12.285,12.285,0,0,1,1.945,4.667A1.5,1.5,0,0,0,11.5,24a1.55,1.55,0,0,0,.214-.015,1.5,1.5,0,0,0,1.273-1.7,15.07,15.07,0,0,0-1.407-4.21L19.8,9.859a17.745,17.745,0,0,0,4.144-6.82A2.491,2.491,0,0,0,23.268.733ZM17.676,7.738,9.9,15.514c-.212-.252-.432-.5-.673-.742s-.489-.461-.741-.672l7.775-7.776a13.942,13.942,0,0,1,4.364-2.949A13.949,13.949,0,0,1,17.676,7.738Z"/></svg>