<svg id="Bold" xmlns="http://www.w3.org/2000/svg" viewBox="0 0 24 24"><title>63 send</title><path d="M23,1.006A3.357,3.357,0,0,0,19.822.1L4.534,3.313a5.314,5.314,0,0,0-2.979,9.015l1.639,1.64a.4.4,0,0,1,.119.287v3.024a3.412,3.412,0,0,0,3.408,3.408H9.745a.408.408,0,0,1,.288.119l1.639,1.639a5.284,5.284,0,0,0,3.745,1.56,5.352,5.352,0,0,0,1.707-.281,5.282,5.282,0,0,0,3.563-4.258L23.9,4.226A3.382,3.382,0,0,0,23,1.006ZM3.119,7.832A2.272,2.272,0,0,1,5,6.277q.053-.007.105-.018l13.322-2.8L6.313,15.566V14.255a3.382,3.382,0,0,0-1-2.409L3.676,10.207A2.274,2.274,0,0,1,3.119,7.832ZM17.741,18.9c-.008.035-.013.07-.018.105a2.315,2.315,0,0,1-3.93,1.323l-1.638-1.638a3.383,3.383,0,0,0-2.41-1H8.434L20.545,5.576Z"/></svg>