<svg id="Layer_1" data-name="Layer 1" xmlns="http://www.w3.org/2000/svg" viewBox="0 0 24 24"><path d="M16.652,15.548a1.5,1.5,0,0,1-.189,2.1A5.981,5.981,0,0,1,12.993,19a3.33,3.33,0,0,1-2.179-.841,2.4,2.4,0,0,0-.236-.174,3.535,3.535,0,0,0-1.1.649,1.5,1.5,0,0,1-1.969-2.263A5.409,5.409,0,0,1,10.635,15a3.133,3.133,0,0,1,2.032.8c.256.2.27.2.326.2a3.028,3.028,0,0,0,1.551-.656A1.5,1.5,0,0,1,16.652,15.548ZM15.5,10h-7a1.5,1.5,0,0,0,0,3h7a1.5,1.5,0,0,0,0-3ZM22,7.157V18.5A5.506,5.506,0,0,1,16.5,24h-9A5.506,5.506,0,0,1,2,18.5V5.5A5.506,5.506,0,0,1,7.5,0h7.343a5.464,5.464,0,0,1,3.889,1.611l1.657,1.657A5.464,5.464,0,0,1,22,7.157ZM19,18.5V7H17a2,2,0,0,1-2-2V3H7.5A2.5,2.5,0,0,0,5,5.5v13A2.5,2.5,0,0,0,7.5,21h9A2.5,2.5,0,0,0,19,18.5Z"/></svg>